<svg width="17" height="166" viewBox="0 0 17 166" fill="none" xmlns="http://www.w3.org/2000/svg">
<path d="M0.999997 1L3.13793 1C4.2425 1 5.13793 1.89543 5.13793 3L5.13793 23.5135M0.999997 47.8649L3.13793 47.8649C4.2425 47.8649 5.13793 46.9694 5.13793 45.8649L5.13793 23.5135M5.13793 23.5135L12 23.5135C14.2091 23.5135 16 25.3044 16 27.5135L16 133C16 135.209 14.2091 137 12 137L5.13793 137" stroke="#04205F" stroke-width="2" stroke-linecap="round"/>
<path d="M0.999998 114L3 114C4.10457 114 5 114.895 5 116L5 138.5L5 163C5 164.105 4.10457 165 3 165L0.999998 165" stroke="#04205F" stroke-width="2" stroke-linecap="round"/>
</svg>
