<svg width="200" height="100" viewBox="0 0 200 100" fill="none" xmlns="http://www.w3.org/2000/svg">
<path fill-rule="evenodd" clip-rule="evenodd" d="M32.3846 25.4231C32.3846 21.5146 35.5531 18.3461 39.4615 18.3461H133.409C141.673 18.3461 149.524 21.9571 154.902 28.2314L159.359 33.4314C161.577 36.019 164.176 38.2543 167.066 40.0606L174.692 44.8266C176.182 45.7582 177.457 46.9965 178.432 48.459L178.92 49.1905C180.276 51.2249 181 53.6152 181 56.0602V64.3461C181 67.2775 178.624 69.6538 175.692 69.6538H174.808C173.831 69.6538 173.038 68.8617 173.038 67.8846C173.038 66.9075 173.831 66.1154 174.808 66.1154H175.692C176.669 66.1154 177.462 65.3232 177.462 64.3461V56.0602C177.462 54.3138 176.945 52.6064 175.976 51.1532L175.488 50.4218C174.792 49.3771 173.881 48.4927 172.816 47.8272L165.191 43.0612C161.996 41.0648 159.124 38.5942 156.673 35.7342L152.216 30.5342C147.51 25.0442 140.64 21.8846 133.409 21.8846H125.269V27.1923C125.269 28.1694 124.477 28.9615 123.5 28.9615C122.523 28.9615 121.731 28.1694 121.731 27.1923V21.8846H48.3077V27.1923C48.3077 28.1694 47.5156 28.9615 46.5385 28.9615C45.5613 28.9615 44.7692 28.1694 44.7692 27.1923V21.8846H39.4615C37.5073 21.8846 35.9231 23.4688 35.9231 25.4231V32.5C35.9231 33.4771 35.131 34.2692 34.1538 34.2692C33.1767 34.2692 32.3846 33.4771 32.3846 32.5V25.4231ZM131.462 30.7307C131.462 29.7536 132.254 28.9615 133.231 28.9615H140.611C142.019 28.9615 143.369 29.5207 144.364 30.5161L153.943 40.0951C154.449 40.6011 154.601 41.3621 154.327 42.0232C154.053 42.6843 153.408 43.1154 152.692 43.1154H133.231C132.254 43.1154 131.462 42.3232 131.462 41.3461V30.7307ZM135 32.5V39.5769H148.421L141.862 33.0182C141.53 32.6864 141.08 32.5 140.611 32.5H135ZM27.9615 39.5769C27.9615 38.5998 28.7536 37.8077 29.7308 37.8077H38.5769C39.554 37.8077 40.3462 38.5998 40.3462 39.5769C40.3462 40.554 39.554 41.3461 38.5769 41.3461H29.7308C28.7536 41.3461 27.9615 40.554 27.9615 39.5769ZM44.7692 39.5769C44.7692 38.5998 45.5613 37.8077 46.5385 37.8077H80.1538C81.131 37.8077 81.9231 38.5998 81.9231 39.5769C81.9231 40.554 81.131 41.3461 80.1538 41.3461H46.5385C45.5613 41.3461 44.7692 40.554 44.7692 39.5769ZM20 46.6538C20 45.6767 20.7921 44.8846 21.7692 44.8846H28.8462C29.8233 44.8846 30.6154 45.6767 30.6154 46.6538C30.6154 47.6309 29.8233 48.4231 28.8462 48.4231H21.7692C20.7921 48.4231 20 47.6309 20 46.6538ZM34.1538 46.6538C34.1538 45.6767 34.946 44.8846 35.9231 44.8846H48.3077C49.2848 44.8846 50.0769 45.6767 50.0769 46.6538C50.0769 47.6309 49.2848 48.4231 48.3077 48.4231H35.9231C34.946 48.4231 34.1538 47.6309 34.1538 46.6538ZM71.3077 46.6538C71.3077 45.6767 72.0998 44.8846 73.0769 44.8846H90.7692C91.7463 44.8846 92.5385 45.6767 92.5385 46.6538C92.5385 47.6309 91.7463 48.4231 90.7692 48.4231H73.0769C72.0998 48.4231 71.3077 47.6309 71.3077 46.6538ZM131.462 46.6538C131.462 45.6767 132.254 44.8846 133.231 44.8846H139.423C140.4 44.8846 141.192 45.6767 141.192 46.6538C141.192 47.6309 140.4 48.4231 139.423 48.4231H133.231C132.254 48.4231 131.462 47.6309 131.462 46.6538ZM27.9615 52.8461C27.9615 51.869 28.7536 51.0769 29.7308 51.0769H34.1538C35.131 51.0769 35.9231 51.869 35.9231 52.8461C35.9231 53.8232 35.131 54.6154 34.1538 54.6154H29.7308C28.7536 54.6154 27.9615 53.8232 27.9615 52.8461ZM38.5769 52.8461C38.5769 51.869 39.369 51.0769 40.3462 51.0769H50.9615C51.9387 51.0769 52.7308 51.869 52.7308 52.8461C52.7308 53.8232 51.9387 54.6154 50.9615 54.6154H40.3462C39.369 54.6154 38.5769 53.8232 38.5769 52.8461ZM32.3846 60.8077C32.3846 59.8306 33.1767 59.0384 34.1538 59.0384H46.5385C47.5156 59.0384 48.3077 59.8306 48.3077 60.8077C48.3077 61.7848 47.5156 62.5769 46.5385 62.5769H35.9231V64.3461C35.9231 65.3232 36.7152 66.1154 37.6923 66.1154H43.8846C44.8617 66.1154 45.6538 66.9075 45.6538 67.8846C45.6538 68.8617 44.8617 69.6538 43.8846 69.6538H37.6923C34.761 69.6538 32.3846 67.2775 32.3846 64.3461V60.8077ZM62.4615 60.8077C62.4615 59.8306 63.2537 59.0384 64.2308 59.0384H75.7308C76.7079 59.0384 77.5 59.8306 77.5 60.8077C77.5 61.7848 76.7079 62.5769 75.7308 62.5769H64.2308C63.2537 62.5769 62.4615 61.7848 62.4615 60.8077ZM90.7692 60.8077C90.7692 59.8306 91.5613 59.0384 92.5385 59.0384H115.538C116.516 59.0384 117.308 59.8306 117.308 60.8077C117.308 61.7848 116.516 62.5769 115.538 62.5769H92.5385C91.5613 62.5769 90.7692 61.7848 90.7692 60.8077ZM124.385 60.8077C124.385 59.8306 125.177 59.0384 126.154 59.0384H137.654C138.631 59.0384 139.423 59.8306 139.423 60.8077C139.423 61.7848 138.631 62.5769 137.654 62.5769H126.154C125.177 62.5769 124.385 61.7848 124.385 60.8077ZM64.2308 67.8846C64.2308 66.9075 65.0229 66.1154 66 66.1154H73.0769C74.054 66.1154 74.8462 66.9075 74.8462 67.8846C74.8462 68.8617 74.054 69.6538 73.0769 69.6538H66C65.0229 69.6538 64.2308 68.8617 64.2308 67.8846ZM93.4231 67.8846C93.4231 66.9075 94.2152 66.1154 95.1923 66.1154H153.577C154.554 66.1154 155.346 66.9075 155.346 67.8846C155.346 68.8617 154.554 69.6538 153.577 69.6538H95.1923C94.2152 69.6538 93.4231 68.8617 93.4231 67.8846Z" fill="#04205F"/>
<path fill-rule="evenodd" clip-rule="evenodd" d="M55.3846 77.6154C60.2702 77.6154 64.2308 73.6548 64.2308 68.7692C64.2308 63.8836 60.2702 59.923 55.3846 59.923C50.499 59.923 46.5385 63.8836 46.5385 68.7692C46.5385 73.6548 50.499 77.6154 55.3846 77.6154ZM55.3846 81.1538C62.2244 81.1538 67.7692 75.609 67.7692 68.7692C67.7692 61.9294 62.2244 56.3846 55.3846 56.3846C48.5448 56.3846 43 61.9294 43 68.7692C43 75.609 48.5448 81.1538 55.3846 81.1538Z" fill="#04205F"/>
<path fill-rule="evenodd" clip-rule="evenodd" d="M83.6923 77.6154C88.5779 77.6154 92.5385 73.6548 92.5385 68.7692C92.5385 63.8836 88.5779 59.923 83.6923 59.923C78.8067 59.923 74.8462 63.8836 74.8462 68.7692C74.8462 73.6548 78.8067 77.6154 83.6923 77.6154ZM83.6923 81.1538C90.5321 81.1538 96.0769 75.609 96.0769 68.7692C96.0769 61.9294 90.5321 56.3846 83.6923 56.3846C76.8525 56.3846 71.3077 61.9294 71.3077 68.7692C71.3077 75.609 76.8525 81.1538 83.6923 81.1538Z" fill="#04205F"/>
<path fill-rule="evenodd" clip-rule="evenodd" d="M164.192 77.6154C169.078 77.6154 173.038 73.6548 173.038 68.7692C173.038 63.8836 169.078 59.923 164.192 59.923C159.307 59.923 155.346 63.8836 155.346 68.7692C155.346 73.6548 159.307 77.6154 164.192 77.6154ZM164.192 81.1538C171.032 81.1538 176.577 75.609 176.577 68.7692C176.577 61.9294 171.032 56.3846 164.192 56.3846C157.352 56.3846 151.808 61.9294 151.808 68.7692C151.808 75.609 157.352 81.1538 164.192 81.1538Z" fill="#04205F"/>
<path d="M58.9231 68.7692C58.9231 70.7234 57.3389 72.3076 55.3846 72.3076C53.4304 72.3076 51.8462 70.7234 51.8462 68.7692C51.8462 66.8149 53.4304 65.2307 55.3846 65.2307C57.3389 65.2307 58.9231 66.8149 58.9231 68.7692Z" fill="#04205F"/>
<path d="M87.2308 68.7692C87.2308 70.7234 85.6465 72.3076 83.6923 72.3076C81.7381 72.3076 80.1538 70.7234 80.1538 68.7692C80.1538 66.8149 81.7381 65.2307 83.6923 65.2307C85.6465 65.2307 87.2308 66.8149 87.2308 68.7692Z" fill="#04205F"/>
<path d="M167.731 68.7692C167.731 70.7234 166.147 72.3076 164.192 72.3076C162.238 72.3076 160.654 70.7234 160.654 68.7692C160.654 66.8149 162.238 65.2307 164.192 65.2307C166.147 65.2307 167.731 66.8149 167.731 68.7692Z" fill="#04205F"/>
</svg>
