<svg width="200" height="100" viewBox="0 0 200 100" fill="none" xmlns="http://www.w3.org/2000/svg">
<path fill-rule="evenodd" clip-rule="evenodd" d="M41.358 25.0345C41.358 21.1494 44.5197 18 48.4198 18H124.512C132.758 18 140.592 21.5894 145.958 27.826L150.406 32.9948C152.619 35.5669 155.212 37.7888 158.096 39.5842L165.705 44.3217C167.193 45.2477 168.465 46.4785 169.438 47.9323L169.924 48.6594C171.278 50.6815 172 53.0575 172 55.4879V63.7241C172 66.6379 169.629 69 166.704 69H165.821C164.846 69 164.056 68.2126 164.056 67.2414C164.056 66.2701 164.846 65.4828 165.821 65.4828H166.704C167.679 65.4828 168.469 64.6954 168.469 63.7241V55.4879C168.469 53.7519 167.953 52.0548 166.987 50.6104L166.5 49.8833C165.805 48.8449 164.896 47.9657 163.834 47.3043L156.225 42.5669C153.037 40.5824 150.171 38.1266 147.725 35.2838L143.277 30.115C138.582 24.6579 131.727 21.5172 124.512 21.5172H116.389V26.7931C116.389 27.7644 115.598 28.5517 114.623 28.5517C113.648 28.5517 112.858 27.7644 112.858 26.7931V21.5172H57.2469V26.7931C57.2469 27.7644 56.4565 28.5517 55.4815 28.5517C54.5065 28.5517 53.716 27.7644 53.716 26.7931V21.5172H48.4198C46.4697 21.5172 44.8889 23.092 44.8889 25.0345V32.069C44.8889 33.0402 44.0985 33.8276 43.1235 33.8276C42.1484 33.8276 41.358 33.0402 41.358 32.069V25.0345ZM122.568 30.3103C122.568 29.3391 123.358 28.5517 124.333 28.5517H131.698C133.103 28.5517 134.45 29.1076 135.443 30.097L145.001 39.6185C145.506 40.1215 145.657 40.8779 145.384 41.5351C145.111 42.1922 144.467 42.6207 143.753 42.6207H124.333C123.358 42.6207 122.568 41.8333 122.568 40.8621V30.3103ZM126.099 32.069V39.1034H139.491L132.946 32.5841C132.615 32.2542 132.166 32.069 131.698 32.069H126.099ZM36.9444 39.1034C36.9444 38.1322 37.7349 37.3448 38.7099 37.3448H47.537C48.5121 37.3448 49.3025 38.1322 49.3025 39.1034C49.3025 40.0747 48.5121 40.8621 47.537 40.8621H38.7099C37.7349 40.8621 36.9444 40.0747 36.9444 39.1034ZM53.716 39.1034C53.716 38.1322 54.5065 37.3448 55.4815 37.3448H71.3704C72.3454 37.3448 73.1358 38.1322 73.1358 39.1034C73.1358 40.0747 72.3454 40.8621 71.3704 40.8621H55.4815C54.5065 40.8621 53.716 40.0747 53.716 39.1034ZM29 46.1379C29 45.1667 29.7904 44.3793 30.7654 44.3793H37.8272C38.8022 44.3793 39.5926 45.1667 39.5926 46.1379C39.5926 47.1092 38.8022 47.8966 37.8272 47.8966H30.7654C29.7904 47.8966 29 47.1092 29 46.1379ZM43.1235 46.1379C43.1235 45.1667 43.9139 44.3793 44.8889 44.3793H57.2469C58.2219 44.3793 59.0123 45.1667 59.0123 46.1379C59.0123 47.1092 58.2219 47.8966 57.2469 47.8966H44.8889C43.9139 47.8966 43.1235 47.1092 43.1235 46.1379ZM62.5432 46.1379C62.5432 45.1667 63.3336 44.3793 64.3086 44.3793H81.963C82.938 44.3793 83.7284 45.1667 83.7284 46.1379C83.7284 47.1092 82.938 47.8966 81.963 47.8966H64.3086C63.3336 47.8966 62.5432 47.1092 62.5432 46.1379ZM122.568 46.1379C122.568 45.1667 123.358 44.3793 124.333 44.3793H130.512C131.487 44.3793 132.278 45.1667 132.278 46.1379C132.278 47.1092 131.487 47.8966 130.512 47.8966H124.333C123.358 47.8966 122.568 47.1092 122.568 46.1379ZM36.9444 52.2931C36.9444 51.3218 37.7349 50.5345 38.7099 50.5345H43.1235C44.0985 50.5345 44.8889 51.3218 44.8889 52.2931C44.8889 53.2644 44.0985 54.0517 43.1235 54.0517H38.7099C37.7349 54.0517 36.9444 53.2644 36.9444 52.2931ZM47.537 52.2931C47.537 51.3218 48.3274 50.5345 49.3025 50.5345H59.8951C60.8701 50.5345 61.6605 51.3218 61.6605 52.2931C61.6605 53.2644 60.8701 54.0517 59.8951 54.0517H49.3025C48.3274 54.0517 47.537 53.2644 47.537 52.2931ZM41.358 60.2069C41.358 59.2356 42.1484 58.4483 43.1235 58.4483H55.4815C56.4565 58.4483 57.2469 59.2356 57.2469 60.2069C57.2469 61.1782 56.4565 61.9655 55.4815 61.9655H44.8889V63.7241C44.8889 64.6954 45.6793 65.4828 46.6543 65.4828H52.8333C53.8084 65.4828 54.5988 66.2701 54.5988 67.2414C54.5988 68.2126 53.8084 69 52.8333 69H46.6543C43.7293 69 41.358 66.6379 41.358 63.7241V60.2069ZM69.6049 60.2069C69.6049 59.2356 70.3954 58.4483 71.3704 58.4483H106.679C107.654 58.4483 108.444 59.2356 108.444 60.2069C108.444 61.1782 107.654 61.9655 106.679 61.9655H71.3704C70.3954 61.9655 69.6049 61.1782 69.6049 60.2069ZM115.506 60.2069C115.506 59.2356 116.297 58.4483 117.272 58.4483H128.747C129.722 58.4483 130.512 59.2356 130.512 60.2069C130.512 61.1782 129.722 61.9655 128.747 61.9655H117.272C116.297 61.9655 115.506 61.1782 115.506 60.2069ZM72.2531 67.2414C72.2531 66.2701 73.0435 65.4828 74.0185 65.4828H144.636C145.611 65.4828 146.401 66.2701 146.401 67.2414C146.401 68.2126 145.611 69 144.636 69H74.0185C73.0435 69 72.2531 68.2126 72.2531 67.2414Z" fill="#FFFFFF"/>
<path fill-rule="evenodd" clip-rule="evenodd" d="M63.5 77.4286C68.4311 77.4286 72.4286 73.4311 72.4286 68.5C72.4286 63.5689 68.4311 59.5714 63.5 59.5714C58.5689 59.5714 54.5714 63.5689 54.5714 68.5C54.5714 73.4311 58.5689 77.4286 63.5 77.4286ZM63.5 81C70.4036 81 76 75.4036 76 68.5C76 61.5964 70.4036 56 63.5 56C56.5964 56 51 61.5964 51 68.5C51 75.4036 56.5964 81 63.5 81Z" fill="#FFFFFF"/>
<path fill-rule="evenodd" clip-rule="evenodd" d="M155.5 77.4286C160.431 77.4286 164.429 73.4311 164.429 68.5C164.429 63.5689 160.431 59.5714 155.5 59.5714C150.569 59.5714 146.571 63.5689 146.571 68.5C146.571 73.4311 150.569 77.4286 155.5 77.4286ZM155.5 81C162.404 81 168 75.4036 168 68.5C168 61.5964 162.404 56 155.5 56C148.596 56 143 61.5964 143 68.5C143 75.4036 148.596 81 155.5 81Z" fill="#FFFFFF"/>
<path d="M67 68.5C67 70.433 65.433 72 63.5 72C61.567 72 60 70.433 60 68.5C60 66.567 61.567 65 63.5 65C65.433 65 67 66.567 67 68.5Z" fill="#FFFFFF"/>
<path d="M159 68.5C159 70.433 157.433 72 155.5 72C153.567 72 152 70.433 152 68.5C152 66.567 153.567 65 155.5 65C157.433 65 159 66.567 159 68.5Z" fill="#FFFFFF"/>
</svg>
