<svg width="200" height="100" viewBox="0 0 200 100" fill="none" xmlns="http://www.w3.org/2000/svg">
<path fill-rule="evenodd" clip-rule="evenodd" d="M68 77.4286C72.7339 77.4286 76.5714 73.4311 76.5714 68.5C76.5714 63.5689 72.7339 59.5714 68 59.5714C63.2661 59.5714 59.4286 63.5689 59.4286 68.5C59.4286 73.4311 63.2661 77.4286 68 77.4286ZM68 81C74.6274 81 80 75.4036 80 68.5C80 61.5964 74.6274 56 68 56C61.3726 56 56 61.5964 56 68.5C56 75.4036 61.3726 81 68 81Z" fill="#04205F"/>
<path d="M72 68.5C72 70.433 70.433 72 68.5 72C66.567 72 65 70.433 65 68.5C65 66.567 66.567 65 68.5 65C70.433 65 72 66.567 72 68.5Z" fill="#04205F"/>
<path fill-rule="evenodd" clip-rule="evenodd" d="M101.5 77.4286C106.431 77.4286 110.429 73.4311 110.429 68.5C110.429 63.5689 106.431 59.5714 101.5 59.5714C96.5689 59.5714 92.5714 63.5689 92.5714 68.5C92.5714 73.4311 96.5689 77.4286 101.5 77.4286ZM101.5 81C108.404 81 114 75.4036 114 68.5C114 61.5964 108.404 56 101.5 56C94.5964 56 89 61.5964 89 68.5C89 75.4036 94.5964 81 101.5 81Z" fill="#04205F"/>
<path d="M105 68.5C105 70.433 103.433 72 101.5 72C99.567 72 98 70.433 98 68.5C98 66.567 99.567 65 101.5 65C103.433 65 105 66.567 105 68.5Z" fill="#04205F"/>
<path fill-rule="evenodd" clip-rule="evenodd" d="M158.5 77.4286C163.431 77.4286 167.429 73.4311 167.429 68.5C167.429 63.5689 163.431 59.5714 158.5 59.5714C153.569 59.5714 149.571 63.5689 149.571 68.5C149.571 73.4311 153.569 77.4286 158.5 77.4286ZM158.5 81C165.404 81 171 75.4036 171 68.5C171 61.5964 165.404 56 158.5 56C151.596 56 146 61.5964 146 68.5C146 75.4036 151.596 81 158.5 81Z" fill="#04205F"/>
<path d="M162 68.5C162 70.433 160.433 72 158.5 72C156.567 72 155 70.433 155 68.5C155 66.567 156.567 65 158.5 65C160.433 65 162 66.567 162 68.5Z" fill="#04205F"/>
<path fill-rule="evenodd" clip-rule="evenodd" d="M32.6364 23.2881C32.6364 20.3676 35.0174 18 37.9545 18H132.795C135.733 18 138.114 20.3676 138.114 23.2881V60.3051H141.659V25.0508C141.659 24.0773 142.453 23.2881 143.432 23.2881H158.07C159.95 23.2881 161.754 24.031 163.084 25.3533L175.923 38.12C177.253 39.4423 178 41.2357 178 43.1057V61.1864C178 65.0805 174.825 68.2373 170.909 68.2373H169.136C168.157 68.2373 167.364 67.4481 167.364 66.4746C167.364 65.5011 168.157 64.7119 169.136 64.7119H170.909C172.867 64.7119 174.455 63.1335 174.455 61.1864V43.1057C174.455 42.1707 174.081 41.274 173.416 40.6128L160.577 27.8461C159.912 27.185 159.01 26.8136 158.07 26.8136H145.205V62.0678C145.205 63.0413 144.411 63.8305 143.432 63.8305H111.523C110.544 63.8305 109.75 63.0413 109.75 62.0678C109.75 61.0943 110.544 60.3051 111.523 60.3051H134.568V23.2881C134.568 22.3146 133.775 21.5254 132.795 21.5254H37.9545C36.9755 21.5254 36.1818 22.3146 36.1818 23.2881V28.5763C36.1818 29.5498 35.3881 30.339 34.4091 30.339C33.43 30.339 32.6364 29.5498 32.6364 28.5763V23.2881ZM69.8636 25.9322C69.8636 24.9587 70.6573 24.1695 71.6364 24.1695H108.864C109.843 24.1695 110.636 24.9587 110.636 25.9322C110.636 26.9057 109.843 27.6949 108.864 27.6949H71.6364C70.6573 27.6949 69.8636 26.9057 69.8636 25.9322ZM118.614 25.9322C118.614 24.9587 119.407 24.1695 120.386 24.1695H128.364C130.322 24.1695 131.909 25.7479 131.909 27.6949V35.6271C131.909 36.6006 131.115 37.3898 130.136 37.3898C129.157 37.3898 128.364 36.6006 128.364 35.6271V27.6949H120.386C119.407 27.6949 118.614 26.9057 118.614 25.9322ZM149.636 32.1017C149.636 31.1282 150.43 30.339 151.409 30.339H158.5C159.003 30.339 159.481 30.5511 159.818 30.9225L167.795 39.7361C168.263 40.2535 168.381 40.9965 168.097 41.6324C167.812 42.2683 167.177 42.678 166.477 42.678H151.409C150.43 42.678 149.636 41.8888 149.636 40.9153V32.1017ZM153.182 33.8644V39.1525H162.497L157.71 33.8644H153.182ZM22 34.7458C22 33.7722 22.7937 32.9831 23.7727 32.9831H37.0682C38.0472 32.9831 38.8409 33.7722 38.8409 34.7458C38.8409 35.7193 38.0472 36.5085 37.0682 36.5085H23.7727C22.7937 36.5085 22 35.7193 22 34.7458ZM41.5 34.7458C41.5 33.7722 42.2937 32.9831 43.2727 32.9831H47.7045C48.6836 32.9831 49.4773 33.7722 49.4773 34.7458C49.4773 35.7193 48.6836 36.5085 47.7045 36.5085H43.2727C42.2937 36.5085 41.5 35.7193 41.5 34.7458ZM52.1364 34.7458C52.1364 33.7722 52.93 32.9831 53.9091 32.9831H71.6364C72.6154 32.9831 73.4091 33.7722 73.4091 34.7458C73.4091 35.7193 72.6154 36.5085 71.6364 36.5085H53.9091C52.93 36.5085 52.1364 35.7193 52.1364 34.7458ZM32.6364 42.678C32.6364 41.7044 33.43 40.9153 34.4091 40.9153H47.7045C48.6836 40.9153 49.4773 41.7044 49.4773 42.678C49.4773 43.6515 48.6836 44.4407 47.7045 44.4407H34.4091C33.43 44.4407 32.6364 43.6515 32.6364 42.678ZM51.25 42.678C51.25 41.7044 52.0437 40.9153 53.0227 40.9153H63.6591C64.6381 40.9153 65.4318 41.7044 65.4318 42.678C65.4318 43.6515 64.6381 44.4407 63.6591 44.4407H53.0227C52.0437 44.4407 51.25 43.6515 51.25 42.678ZM67.2045 42.678C67.2045 41.7044 67.9982 40.9153 68.9773 40.9153H77.8409C78.82 40.9153 79.6136 41.7044 79.6136 42.678C79.6136 43.6515 78.82 44.4407 77.8409 44.4407H68.9773C67.9982 44.4407 67.2045 43.6515 67.2045 42.678ZM148.75 47.0847C148.75 46.1112 149.544 45.322 150.523 45.322H158.5C159.479 45.322 160.273 46.1112 160.273 47.0847C160.273 48.0583 159.479 48.8475 158.5 48.8475H150.523C149.544 48.8475 148.75 48.0583 148.75 47.0847ZM29.0909 50.6102C29.0909 49.6367 29.8846 48.8475 30.8636 48.8475H44.1591C45.1381 48.8475 45.9318 49.6367 45.9318 50.6102C45.9318 51.5837 45.1381 52.3729 44.1591 52.3729H30.8636C29.8846 52.3729 29.0909 51.5837 29.0909 50.6102ZM47.7045 50.6102C47.7045 49.6367 48.4982 48.8475 49.4773 48.8475H72.5227C73.5018 48.8475 74.2955 49.6367 74.2955 50.6102C74.2955 51.5837 73.5018 52.3729 72.5227 52.3729H49.4773C48.4982 52.3729 47.7045 51.5837 47.7045 50.6102ZM32.6364 62.0678C32.6364 61.0943 33.43 60.3051 34.4091 60.3051H59.2273C60.2063 60.3051 61 61.0943 61 62.0678C61 63.0413 60.2063 63.8305 59.2273 63.8305H45.0455V66.4746H57.4545C58.4336 66.4746 59.2273 67.2638 59.2273 68.2373C59.2273 69.2108 58.4336 70 57.4545 70H45.0455C43.0874 70 41.5 68.4216 41.5 66.4746V63.8305H34.4091C33.43 63.8305 32.6364 63.0413 32.6364 62.0678ZM75.1818 62.0678C75.1818 61.0943 75.9755 60.3051 76.9545 60.3051H92.9091C93.8881 60.3051 94.6818 61.0943 94.6818 62.0678C94.6818 63.0413 93.8881 63.8305 92.9091 63.8305H76.9545C75.9755 63.8305 75.1818 63.0413 75.1818 62.0678ZM76.9545 68.2373C76.9545 67.2638 77.7482 66.4746 78.7273 66.4746H91.1364C92.1154 66.4746 92.9091 67.2638 92.9091 68.2373C92.9091 69.2108 92.1154 70 91.1364 70H78.7273C77.7482 70 76.9545 69.2108 76.9545 68.2373ZM110.636 68.2373C110.636 67.2638 111.43 66.4746 112.409 66.4746H147.864C148.843 66.4746 149.636 67.2638 149.636 68.2373C149.636 69.2108 148.843 70 147.864 70H112.409C111.43 70 110.636 69.2108 110.636 68.2373Z" fill="#04205F"/>
</svg>
