<svg width="200" height="100" viewBox="0 0 200 100" fill="none" xmlns="http://www.w3.org/2000/svg">
<path fill-rule="evenodd" clip-rule="evenodd" d="M74.5 78.4286C79.4311 78.4286 83.4286 74.4311 83.4286 69.5C83.4286 64.5689 79.4311 60.5714 74.5 60.5714C69.5689 60.5714 65.5714 64.5689 65.5714 69.5C65.5714 74.4311 69.5689 78.4286 74.5 78.4286ZM74.5 82C81.4036 82 87 76.4036 87 69.5C87 62.5964 81.4036 57 74.5 57C67.5964 57 62 62.5964 62 69.5C62 76.4036 67.5964 82 74.5 82Z" fill="#04205F"/>
<path d="M78 69.5C78 71.433 76.433 73 74.5 73C72.567 73 71 71.433 71 69.5C71 67.567 72.567 66 74.5 66C76.433 66 78 67.567 78 69.5Z" fill="#04205F"/>
<path fill-rule="evenodd" clip-rule="evenodd" d="M152.5 78.4286C157.431 78.4286 161.429 74.4311 161.429 69.5C161.429 64.5689 157.431 60.5714 152.5 60.5714C147.569 60.5714 143.571 64.5689 143.571 69.5C143.571 74.4311 147.569 78.4286 152.5 78.4286ZM152.5 82C159.404 82 165 76.4036 165 69.5C165 62.5964 159.404 57 152.5 57C145.596 57 140 62.5964 140 69.5C140 76.4036 145.596 82 152.5 82Z" fill="#04205F"/>
<path d="M156 69.5C156 71.433 154.433 73 152.5 73C150.567 73 149 71.433 149 69.5C149 67.567 150.567 66 152.5 66C154.433 66 156 67.567 156 69.5Z" fill="#04205F"/>
<path fill-rule="evenodd" clip-rule="evenodd" d="M43.6391 23.3333C43.6391 20.3878 46.0233 18 48.9645 18H130.621C133.562 18 135.947 20.3878 135.947 23.3333V28.6667H148.335C151.155 28.6667 153.808 30.0089 155.481 32.2827L164.28 44.2427C164.888 45.0682 165.851 45.5556 166.875 45.5556C168.516 45.5556 170.108 46.1149 171.389 47.1416L172.942 48.3859C174.243 49.4279 175 51.0054 175 52.6734V65.1111C175 69.0385 171.821 72.2222 167.899 72.2222H163.462C162.481 72.2222 161.686 71.4263 161.686 70.4444C161.686 69.4626 162.481 68.6667 163.462 68.6667H167.899C169.86 68.6667 171.45 67.0748 171.45 65.1111V52.6734C171.45 52.0855 171.183 51.5296 170.725 51.1623L169.171 49.918C168.519 49.3957 167.709 49.1111 166.875 49.1111C164.722 49.1111 162.699 48.0869 161.422 46.3518L152.622 34.3918C151.619 33.0276 150.027 32.2222 148.335 32.2222H135.947V62.4444H143.047C144.028 62.4444 144.822 63.2404 144.822 64.2222C144.822 65.2041 144.028 66 143.047 66H85.355C84.3746 66 83.5799 65.2041 83.5799 64.2222C83.5799 63.2404 84.3746 62.4444 85.355 62.4444H132.396V23.3333C132.396 22.3515 131.602 21.5556 130.621 21.5556H48.9645C47.9841 21.5556 47.1893 22.3515 47.1893 23.3333V34.8889C47.1893 35.8707 46.3946 36.6667 45.4142 36.6667C44.4338 36.6667 43.6391 35.8707 43.6391 34.8889V23.3333ZM49.8521 26.8889C49.8521 24.9252 51.4416 23.3333 53.4024 23.3333H60.503C61.4833 23.3333 62.2781 24.1293 62.2781 25.1111C62.2781 26.093 61.4833 26.8889 60.503 26.8889H53.4024V32.2222C53.4024 33.2041 52.6076 34 51.6272 34C50.6468 34 49.8521 33.2041 49.8521 32.2222V26.8889ZM72.929 25.1111C72.929 24.1293 73.7238 23.3333 74.7041 23.3333H92.4556C93.436 23.3333 94.2308 24.1293 94.2308 25.1111C94.2308 26.093 93.436 26.8889 92.4556 26.8889H74.7041C73.7238 26.8889 72.929 26.093 72.929 25.1111ZM141.272 35.7778C141.272 34.7959 142.067 34 143.047 34H148.373C148.952 34 149.495 34.283 149.827 34.7583L156.04 43.6472C156.42 44.1902 156.466 44.8997 156.16 45.4877C155.855 46.0756 155.248 46.4444 154.586 46.4444H143.047C142.067 46.4444 141.272 45.6485 141.272 44.6667V35.7778ZM144.822 37.5556V42.8889H151.176L147.449 37.5556H144.822ZM25 40.2222C25 39.2404 25.7948 38.4444 26.7751 38.4444H32.9882C33.9686 38.4444 34.7633 39.2404 34.7633 40.2222C34.7633 41.2041 33.9686 42 32.9882 42H26.7751C25.7948 42 25 41.2041 25 40.2222ZM38.3136 40.2222C38.3136 39.2404 39.1084 38.4444 40.0888 38.4444H67.6035C68.5839 38.4444 69.3787 39.2404 69.3787 40.2222C69.3787 41.2041 68.5839 42 67.6035 42H40.0888C39.1084 42 38.3136 41.2041 38.3136 40.2222ZM32.1006 46.4444C32.1006 45.4626 32.8954 44.6667 33.8757 44.6667H36.5385C37.5188 44.6667 38.3136 45.4626 38.3136 46.4444C38.3136 47.4263 37.5188 48.2222 36.5385 48.2222H33.8757C32.8954 48.2222 32.1006 47.4263 32.1006 46.4444ZM40.0888 46.4444C40.0888 45.4626 40.8835 44.6667 41.8639 44.6667H61.3905C62.3709 44.6667 63.1657 45.4626 63.1657 46.4444C63.1657 47.4263 62.3709 48.2222 61.3905 48.2222H41.8639C40.8835 48.2222 40.0888 47.4263 40.0888 46.4444ZM65.8284 46.4444C65.8284 45.4626 66.6232 44.6667 67.6035 44.6667H80.9172C81.8975 44.6667 82.6923 45.4626 82.6923 46.4444C82.6923 47.4263 81.8975 48.2222 80.9172 48.2222H67.6035C66.6232 48.2222 65.8284 47.4263 65.8284 46.4444ZM140.385 50.8889C140.385 49.9071 141.179 49.1111 142.16 49.1111H149.26C150.241 49.1111 151.035 49.9071 151.035 50.8889C151.035 51.8707 150.241 52.6667 149.26 52.6667H142.16C141.179 52.6667 140.385 51.8707 140.385 50.8889ZM27.6627 52.6667C27.6627 51.6848 28.4575 50.8889 29.4379 50.8889H43.6391C44.6194 50.8889 45.4142 51.6848 45.4142 52.6667C45.4142 53.6485 44.6194 54.4444 43.6391 54.4444H29.4379C28.4575 54.4444 27.6627 53.6485 27.6627 52.6667ZM48.0769 52.6667C48.0769 51.6848 48.8717 50.8889 49.8521 50.8889H72.929C73.9094 50.8889 74.7041 51.6848 74.7041 52.6667C74.7041 53.6485 73.9094 54.4444 72.929 54.4444H49.8521C48.8717 54.4444 48.0769 53.6485 48.0769 52.6667ZM45.4142 56.2222C46.3946 56.2222 47.1893 57.0182 47.1893 58V62.4444H64.9408C65.9212 62.4444 66.716 63.2404 66.716 64.2222C66.716 65.2041 65.9212 66 64.9408 66H44.9704C43.7449 66 42.7515 66.9949 42.7515 68.2222C42.7515 69.4495 43.7449 70.4444 44.9704 70.4444H64.0533C65.0336 70.4444 65.8284 71.2404 65.8284 72.2222C65.8284 73.2041 65.0336 74 64.0533 74H44.9704C41.7842 74 39.2012 71.4132 39.2012 68.2222C39.2012 65.4902 41.0946 63.201 43.6391 62.599V58C43.6391 57.0182 44.4338 56.2222 45.4142 56.2222ZM83.5799 72.2222C83.5799 71.2404 84.3746 70.4444 85.355 70.4444H142.16C143.14 70.4444 143.935 71.2404 143.935 72.2222C143.935 73.2041 143.14 74 142.16 74H85.355C84.3746 74 83.5799 73.2041 83.5799 72.2222Z" fill="#04205F"/>
</svg>
