<svg width="346" height="201" viewBox="0 0 346 201" fill="none" xmlns="http://www.w3.org/2000/svg">
<rect x="43" width="280" height="201" rx="18" fill="#F3F8FF"/>
<path fill-rule="evenodd" clip-rule="evenodd" d="M43 25.0205C43.1649 25.0069 43.3316 25 43.5 25H71V0H85.6299L124.5 37.5986V0H136.5V87.5H174.5V0H186.5V57H227.128L245.5 26.8175V0H257.5V27.0237L299.13 106.5H323V118.5H236.5V146H256.5C258.375 146 260.141 146.876 261.276 148.368L297.776 196.368C298.821 197.742 299.182 199.422 298.916 201H286.223L253.525 158H236.5V201H224.5V158H198.5V200C198.5 200.341 198.472 200.675 198.417 201H186.583C186.528 200.675 186.5 200.341 186.5 200V158H152V200C152 200.341 151.972 200.675 151.917 201H140.083C140.028 200.675 140 200.341 140 200V158H111V200C111 200.341 110.972 200.675 110.917 201H99.083C99.0284 200.675 99 200.341 99 200V158H88.5C85.1863 158 82.5 155.314 82.5 152V99.5H43V87.5H82.5V58.5C82.5 55.1863 85.1863 52.5 88.5 52.5C91.8137 52.5 94.5 55.1863 94.5 58.5V87.5H124.5V54.2939L83 14.1514V31C83 34.3137 80.3137 37 77 37H43.5C43.3316 37 43.1649 36.9931 43 36.9795V25.0205ZM94.5 99.5H124.5V103.5C124.5 105.386 125.387 107.162 126.894 108.296L136.037 115.171H94.5V99.5ZM94.5 127.171H151.996L177.037 146H94.5V127.171ZM204 146H199.694L186.5 92.7675V69H204V146ZM185.115 137.06L175.806 99.5H136.5V100.505L185.115 137.06ZM216 106.5V69H224.5V106.5H216ZM236.5 106.5V64.6825L251.108 40.6831L285.584 106.5H236.5ZM216 118.5H224.5V146H216V118.5Z" fill="white"/>
<path d="M257.5 153.5H195.5L153.5 120.5H88.5V63.5" stroke="#18A754" stroke-width="2" stroke-linecap="round" stroke-linejoin="round"/>
<circle cx="88.5" cy="62.5" r="11.5" fill="#18A754" fill-opacity="0.6"/>
<circle cx="88.5" cy="62.5" r="7.5" fill="#18A754"/>
<circle cx="88.5" cy="62.5" r="3.5" fill="white"/>
<circle r="2.5" transform="matrix(-1 0 0 1 257.5 153.5)" fill="#18A754"/>
<path fill-rule="evenodd" clip-rule="evenodd" d="M16.5 11C7.3873 11 0 18.3873 0 27.5C0 36.6127 7.3873 44 16.5 44H84L89 49L94 44H99.5C108.613 44 116 36.6127 116 27.5C116 18.3873 108.613 11 99.5 11H16.5Z" fill="#18A754"/>
<circle cx="16.5" cy="27.5" r="11.5" fill="#0E813E"/>
<rect x="32" y="32" width="71" height="2" rx="1" fill="#0E803E"/>
<rect x="32" y="22" width="42" height="4" rx="2" fill="white"/>
<path fill-rule="evenodd" clip-rule="evenodd" d="M246.5 110C237.387 110 230 117.387 230 126.5C230 135.613 237.387 143 246.5 143H253L258 148L263 143H329.5C338.613 143 346 135.613 346 126.5C346 117.387 338.613 110 329.5 110H246.5Z" fill="#2F80ED"/>
<circle cx="246.5" cy="126.5" r="11.5" fill="#2267C4"/>
<rect x="262" y="131" width="71" height="2" rx="1" fill="#2267C4"/>
<rect x="262" y="121" width="42" height="4" rx="2" fill="white"/>
</svg>
