<svg width="200" height="100" viewBox="0 0 200 100" fill="none" xmlns="http://www.w3.org/2000/svg">
<path fill-rule="evenodd" clip-rule="evenodd" d="M83 81.5023C90.9542 81.5023 97.4023 75.2332 97.4023 67.5C97.4023 59.7668 90.9542 53.4977 83 53.4977C75.0458 53.4977 68.5977 59.7668 68.5977 67.5C68.5977 75.2332 75.0458 81.5023 83 81.5023ZM83 85C92.9411 85 101 77.165 101 67.5C101 57.835 92.9411 50 83 50C73.0589 50 65 57.835 65 67.5C65 77.165 73.0589 85 83 85Z" fill="#FFFFFF"/>
<path d="M88 68C88 70.7614 85.7614 73 83 73C80.2386 73 78 70.7614 78 68C78 65.2386 80.2386 63 83 63C85.7614 63 88 65.2386 88 68Z" fill="#FFFFFF"/>
<path fill-rule="evenodd" clip-rule="evenodd" d="M149 81.5023C156.954 81.5023 163.402 75.2332 163.402 67.5C163.402 59.7668 156.954 53.4977 149 53.4977C141.046 53.4977 134.598 59.7668 134.598 67.5C134.598 75.2332 141.046 81.5023 149 81.5023ZM149 85C158.941 85 167 77.165 167 67.5C167 57.835 158.941 50 149 50C139.059 50 131 57.835 131 67.5C131 77.165 139.059 85 149 85Z" fill="#FFFFFF"/>
<path d="M154 68C154 70.7614 151.761 73 149 73C146.239 73 144 70.7614 144 68C144 65.2386 146.239 63 149 63C151.761 63 154 65.2386 154 68Z" fill="#FFFFFF"/>
<path fill-rule="evenodd" clip-rule="evenodd" d="M109.953 16.7905C109.953 15.8016 110.743 15 111.717 15H119.075C121.607 15 123.945 16.3771 125.201 18.6086L128.212 23.9581H136.186C140.04 23.9581 143.164 27.1296 143.164 31.0419C143.164 34.9542 140.04 38.1258 136.186 38.1258H136.039L137.544 41.0963C142.287 38.9363 147.451 37.8024 152.705 37.8024H154.236C155.21 37.8024 156 38.604 156 39.5928C156 40.5817 155.21 41.3833 154.236 41.3833H152.705C148.015 41.3833 143.404 42.382 139.16 44.2858L142.969 51.8039C143.25 52.3589 143.226 53.0226 142.906 53.5554C142.586 54.0882 142.015 54.4132 141.4 54.4132H113.321C112.854 54.4132 112.405 54.2246 112.074 53.8888L104.568 46.2695H95.1167L108.436 59.7903H132.575C133.55 59.7903 134.339 60.592 134.339 61.5808C134.339 62.5696 133.55 63.3713 132.575 63.3713H98.881C97.9069 63.3713 97.1172 62.5696 97.1172 61.5808C97.1172 60.592 97.9069 59.7903 98.881 59.7903H103.448L90.1279 46.2695H84.5999V50.994C84.5999 51.9828 83.8102 52.7845 82.8361 52.7845C81.8619 52.7845 81.0722 51.9828 81.0722 50.994V46.2695H72.5607C69.6476 46.2695 66.7936 47.1049 64.3278 48.6795C62.1912 50.0438 60.7007 52.2394 60.2057 54.7519L59.5253 58.2055C59.3342 59.1751 58.405 59.804 57.4498 59.61C56.4946 59.4161 55.8751 58.4728 56.0662 57.5032L56.7466 54.0497C57.4315 50.5735 59.4935 47.5359 62.4495 45.6483C65.4779 43.7146 68.983 42.6886 72.5607 42.6886H103.535V35.521C103.535 33.6613 102.05 32.1537 100.218 32.1537H78.8248C77.8507 32.1537 77.061 31.3521 77.061 30.3633C77.061 29.3744 77.8507 28.5728 78.8248 28.5728H100.218C102.994 28.5728 105.384 30.25 106.458 32.6605L113.98 27.8379C117.1 25.8376 120.61 24.5781 124.25 24.1359L122.138 20.3852C121.51 19.2695 120.341 18.5809 119.075 18.5809H111.717C110.743 18.5809 109.953 17.7793 109.953 16.7905ZM126.179 27.5634C122.523 27.7403 118.968 28.8752 115.863 30.8655L107.063 36.5078V42.5561L113.132 42.1161C115.103 41.9732 117.036 41.4969 118.851 40.707L119.721 40.3287C123.681 38.606 126.756 35.3091 128.242 31.2281L126.179 27.5634ZM130.394 35.0511C128.35 38.8511 125.096 41.8863 121.111 43.62L120.241 43.9983C118.064 44.9455 115.746 45.5166 113.383 45.6879L109.278 45.9856L114.052 50.8323H138.51L136.013 45.9035C135.058 46.4602 134.128 47.066 133.226 47.7198L131.194 49.1935C130.401 49.7682 129.3 49.5819 128.733 48.7772C128.167 47.9725 128.351 46.8543 129.144 46.2796L131.176 44.8059C132.217 44.0509 133.293 43.3537 134.398 42.716L131.598 37.1894L130.394 35.0511ZM134.172 34.5449H136.186C138.091 34.5449 139.636 32.9766 139.636 31.0419C139.636 29.1073 138.091 27.539 136.186 27.539H130.228L134.172 34.5449ZM40.1575 22.3062C40.1575 21.3174 40.9472 20.5158 41.9214 20.5158H45.9326C46.9067 20.5158 47.6964 21.3174 47.6964 22.3062C47.6964 23.2951 46.9067 24.0967 45.9326 24.0967H41.9214C40.9472 24.0967 40.1575 23.2951 40.1575 22.3062ZM51.389 22.3062C51.389 21.3174 52.1787 20.5158 53.1528 20.5158H71.6045C72.5787 20.5158 73.3683 21.3174 73.3683 22.3062C73.3683 23.2951 72.5787 24.0967 71.6045 24.0967H53.1528C52.1787 24.0967 51.389 23.2951 51.389 22.3062ZM75.4565 22.3062C75.4565 21.3174 76.2461 20.5158 77.2203 20.5158H87.6495C88.6236 20.5158 89.4133 21.3174 89.4133 22.3062C89.4133 23.2951 88.6236 24.0967 87.6495 24.0967H77.2203C76.2461 24.0967 75.4565 23.2951 75.4565 22.3062ZM45.0337 30.3633C45.0337 29.3744 45.8234 28.5728 46.7975 28.5728H49.9439C50.918 28.5728 51.7077 29.3744 51.7077 30.3633C51.7077 31.3521 50.918 32.1537 49.9439 32.1537H46.7975C45.8234 32.1537 45.0337 31.3521 45.0337 30.3633ZM53.7958 30.3633C53.7958 29.3744 54.5855 28.5728 55.5596 28.5728H71.6046C72.5787 28.5728 73.3684 29.3744 73.3684 30.3633C73.3684 31.3521 72.5787 32.1537 71.6046 32.1537H55.5596C54.5855 32.1537 53.7958 31.3521 53.7958 30.3633ZM33 38.4203C33 37.4315 33.7897 36.6299 34.7638 36.6299H46.7975C47.7717 36.6299 48.5613 37.4315 48.5613 38.4203C48.5613 39.4092 47.7717 40.2108 46.7975 40.2108H34.7638C33.7897 40.2108 33 39.4092 33 38.4203ZM50.6495 38.4203C50.6495 37.4315 51.4391 36.6299 52.4133 36.6299H69.2605C70.2346 36.6299 71.0243 37.4315 71.0243 38.4203C71.0243 39.4092 70.2346 40.2108 69.2605 40.2108H52.4133C51.4391 40.2108 50.6495 39.4092 50.6495 38.4203ZM115.569 47.7365C115.569 46.7477 116.359 45.9461 117.333 45.9461H124.553C125.527 45.9461 126.317 46.7477 126.317 47.7365C126.317 48.7254 125.527 49.527 124.553 49.527H117.333C116.359 49.527 115.569 48.7254 115.569 47.7365ZM57.6364 63.2095C57.6364 62.2207 58.4261 61.4191 59.4002 61.4191H66.7911C67.7652 61.4191 68.5549 62.2207 68.5549 63.2095C68.5549 64.1984 67.7652 65 66.7911 65H59.4002C58.4261 65 57.6364 64.1984 57.6364 63.2095Z" fill="#FFFFFF"/>
</svg>
