<svg width="200" height="100" viewBox="0 0 200 100" fill="none" xmlns="http://www.w3.org/2000/svg">
<path fill-rule="evenodd" clip-rule="evenodd" d="M67.5 81.4286C72.4311 81.4286 76.4286 77.4311 76.4286 72.5C76.4286 67.5689 72.4311 63.5714 67.5 63.5714C62.5689 63.5714 58.5714 67.5689 58.5714 72.5C58.5714 77.4311 62.5689 81.4286 67.5 81.4286ZM67.5 85C74.4036 85 80 79.4036 80 72.5C80 65.5964 74.4036 60 67.5 60C60.5964 60 55 65.5964 55 72.5C55 79.4036 60.5964 85 67.5 85Z" fill="#FFFFFF"/>
<path d="M71 72.5C71 74.433 69.433 76 67.5 76C65.567 76 64 74.433 64 72.5C64 70.567 65.567 69 67.5 69C69.433 69 71 70.567 71 72.5Z" fill="#FFFFFF"/>
<path fill-rule="evenodd" clip-rule="evenodd" d="M145.5 81.4286C150.431 81.4286 154.429 77.4311 154.429 72.5C154.429 67.5689 150.431 63.5714 145.5 63.5714C140.569 63.5714 136.571 67.5689 136.571 72.5C136.571 77.4311 140.569 81.4286 145.5 81.4286ZM145.5 85C152.404 85 158 79.4036 158 72.5C158 65.5964 152.404 60 145.5 60C138.596 60 133 65.5964 133 72.5C133 79.4036 138.596 85 145.5 85Z" fill="#FFFFFF"/>
<path d="M149 72.5C149 74.433 147.433 76 145.5 76C143.567 76 142 74.433 142 72.5C142 70.567 143.567 69 145.5 69C147.433 69 149 70.567 149 72.5Z" fill="#FFFFFF"/>
<path fill-rule="evenodd" clip-rule="evenodd" d="M41.7778 24.5556C40.7959 24.5556 40 25.3515 40 26.3333V65.4444H57.7778C58.7596 65.4444 59.5556 66.2404 59.5556 67.2222C59.5556 68.2041 58.7596 69 57.7778 69H37.7778C36.5505 69 35.5556 69.9949 35.5556 71.2222C35.5556 72.4495 36.5505 73.4444 37.7778 73.4444H56.8889C57.8707 73.4444 58.6667 74.2404 58.6667 75.2222C58.6667 76.2041 57.8707 77 56.8889 77H37.7778C34.5868 77 32 74.4132 32 71.2222C32 68.4902 33.8963 66.201 36.4444 65.599V26.3333C36.4444 23.3878 38.8323 21 41.7778 21H64.8889C65.8707 21 66.6667 21.7959 66.6667 22.7778C66.6667 23.7596 65.8707 24.5556 64.8889 24.5556H41.7778ZM96.8889 22.7778C96.8889 21.7959 97.6848 21 98.6667 21H123.556C126.501 21 128.889 23.3878 128.889 26.3333V31.6667H141.296C144.12 31.6667 146.776 33.0089 148.452 35.2827L157.264 47.2427C157.873 48.0682 158.837 48.5556 159.862 48.5556C161.506 48.5556 163.101 49.1149 164.384 50.1416L165.939 51.3859C167.242 52.4279 168 54.0054 168 55.6734V68.1111C168 72.0385 164.816 75.2222 160.889 75.2222H156.444C155.463 75.2222 154.667 74.4263 154.667 73.4444C154.667 72.4626 155.463 71.6667 156.444 71.6667H160.889C162.853 71.6667 164.444 70.0748 164.444 68.1111V55.6734C164.444 55.0855 164.177 54.5296 163.718 54.1623L162.163 52.918C161.51 52.3957 160.699 52.1111 159.862 52.1111C157.707 52.1111 155.68 51.0869 154.402 49.3518L145.589 37.3918C144.584 36.0276 142.99 35.2222 141.296 35.2222H128.889V65.4444H136C136.982 65.4444 137.778 66.2404 137.778 67.2222C137.778 68.2041 136.982 69 136 69H78.2222C77.2404 69 76.4444 68.2041 76.4444 67.2222C76.4444 66.2404 77.2404 65.4444 78.2222 65.4444H125.333V26.3333C125.333 25.3515 124.537 24.5556 123.556 24.5556H98.6667C97.6848 24.5556 96.8889 23.7596 96.8889 22.7778ZM44.4444 26.3333C45.4263 26.3333 46.2222 27.1293 46.2222 28.1111V35.2222C46.2222 36.2041 45.4263 37 44.4444 37C43.4626 37 42.6667 36.2041 42.6667 35.2222V28.1111C42.6667 27.1293 43.4626 26.3333 44.4444 26.3333ZM134.222 38.7778C134.222 37.7959 135.018 37 136 37H141.333C141.913 37 142.457 37.283 142.79 37.7583L149.012 46.6472C149.392 47.1902 149.439 47.8997 149.132 48.4877C148.826 49.0756 148.218 49.4444 147.556 49.4444H136C135.018 49.4444 134.222 48.6485 134.222 47.6667V38.7778ZM137.778 40.5556V45.8889H144.141L140.408 40.5556H137.778ZM133.333 53.8889C133.333 52.9071 134.129 52.1111 135.111 52.1111H142.222C143.204 52.1111 144 52.9071 144 53.8889C144 54.8707 143.204 55.6667 142.222 55.6667H135.111C134.129 55.6667 133.333 54.8707 133.333 53.8889ZM76.4444 75.2222C76.4444 74.2404 77.2404 73.4444 78.2222 73.4444H135.111C136.093 73.4444 136.889 74.2404 136.889 75.2222C136.889 76.2041 136.093 77 135.111 77H78.2222C77.2404 77 76.4444 76.2041 76.4444 75.2222Z" fill="#FFFFFF"/>
<path fill-rule="evenodd" clip-rule="evenodd" d="M82.5 55.4C92.9382 55.4 101.4 46.9382 101.4 36.5C101.4 26.0618 92.9382 17.6 82.5 17.6C72.0618 17.6 63.6 26.0618 63.6 36.5C63.6 46.9382 72.0618 55.4 82.5 55.4ZM82.5 59C94.9264 59 105 48.9264 105 36.5C105 24.0736 94.9264 14 82.5 14C70.0736 14 60 24.0736 60 36.5C60 48.9264 70.0736 59 82.5 59Z" fill="#FFFFFF"/>
<path d="M86.6437 30.9091C86.6437 27.9245 84.8352 26.4488 81.2184 26.482C79.2567 26.482 77.6475 26.9297 76.3908 27.825C76.0843 28.024 75.7471 28.1235 75.3793 28.1235C75.0115 28.1235 74.6897 27.9743 74.4138 27.6758C74.1379 27.3442 74 26.9794 74 26.5815C74 25.8851 74.3065 25.3379 74.9195 24.94C76.8812 23.6467 79.0881 23 81.5402 23C84.1149 23 86.1533 23.6964 87.6552 25.0892C89.1877 26.482 89.9693 28.3556 90 30.7101C90 33.1641 88.8352 35.3196 86.5057 37.1767C85.1264 38.3042 84.1303 39.3819 83.5172 40.41C83.1801 41.04 82.9962 41.7033 82.9655 42.3997C82.9655 43.0629 82.7969 43.5437 82.4598 43.8422C82.1226 44.1407 81.7241 44.2899 81.2644 44.2899C80.8352 44.2899 80.4521 44.1407 80.1149 43.8422C79.8084 43.5106 79.6552 43.1292 79.6552 42.6981C79.6552 40.012 80.8199 37.6741 83.1494 35.6844C84.6513 34.3911 85.6015 33.446 86 32.8491C86.4291 32.2521 86.6437 31.6055 86.6437 30.9091ZM79.0115 49.5626C79.0115 48.8994 79.2261 48.3356 79.6552 47.8714C80.1149 47.4071 80.6513 47.175 81.2644 47.175C81.8774 47.175 82.3985 47.4071 82.8276 47.8714C83.2874 48.3356 83.5172 48.8994 83.5172 49.5626C83.5172 50.2258 83.2874 50.8062 82.8276 51.3036C82.3985 51.7679 81.8774 52 81.2644 52C80.6513 52 80.1149 51.7679 79.6552 51.3036C79.2261 50.8062 79.0115 50.2258 79.0115 49.5626Z" fill="#FFFFFF"/>
</svg>
