<svg width="165" height="159" viewBox="0 0 165 159" fill="none" xmlns="http://www.w3.org/2000/svg">
<circle cx="79.2" cy="79.2" r="79.2" fill="url(#paint0_linear)"/>
<path d="M21.45 113.85V47.025L96.525 34.65L136.95 57.3375V121.275L63.9375 134.888L21.45 113.85Z" fill="#AA9169"/>
<path d="M63.9375 68.475L21.45 47.025L96.525 34.65L133.65 55.6875L63.9375 68.475Z" fill="#C8B286"/>
<path d="M63.9375 134.888V68.475L21.45 47.025V113.85L63.9375 134.888Z" fill="#9B815F"/>
<path d="M38.775 70.95V55.6875L45.375 58.9875V74.6625L38.775 70.95Z" fill="#6E4F2E"/>
<path d="M111.375 42.9L38.775 55.6875L45.375 58.9875L117.15 46.2L111.375 42.9Z" fill="#AB8349"/>
<path d="M85.8 95.7L127.875 87.8625V112.2L85.8 120.038V95.7Z" fill="#C4C4C4"/>
<path d="M160.875 43.725C160.875 55.1158 151.641 64.35 140.25 64.35C128.859 64.35 119.625 55.1158 119.625 43.725C119.625 32.3341 128.859 23.1 140.25 23.1C151.641 23.1 160.875 32.3341 160.875 43.725Z" fill="#DBE0EE"/>
<path fill-rule="evenodd" clip-rule="evenodd" d="M165 43.725C165 57.394 153.919 68.475 140.25 68.475C126.581 68.475 115.5 57.394 115.5 43.725C115.5 30.0559 126.581 18.975 140.25 18.975C153.919 18.975 165 30.0559 165 43.725ZM140.25 64.35C151.641 64.35 160.875 55.1158 160.875 43.725C160.875 32.3341 151.641 23.1 140.25 23.1C128.859 23.1 119.625 32.3341 119.625 43.725C119.625 55.1158 128.859 64.35 140.25 64.35Z" fill="#F3F8FF"/>
<path d="M151.771 38.3379C151.738 37.6819 151.738 37.0557 151.738 36.4294C151.738 35.9225 151.311 35.5348 150.753 35.5348C146.651 35.5348 143.533 34.4613 140.94 32.1652C140.546 31.8372 139.955 31.8372 139.561 32.1652C136.968 34.4613 133.85 35.5348 129.747 35.5348C129.189 35.5348 128.763 35.9225 128.763 36.4294C128.763 37.0557 128.763 37.6819 128.73 38.3379C128.599 44.6001 128.402 53.1882 139.922 56.7964L140.25 56.8561L140.579 56.7964C152.066 53.1882 151.902 44.6299 151.771 38.3379ZM139.463 47.0155C139.266 47.1646 139.036 47.2541 138.773 47.2541H138.741C138.478 47.2541 138.216 47.1348 138.051 46.9559L134.999 43.8844L136.476 42.6916L138.872 45.107L144.189 40.5148L145.535 41.8268L139.463 47.0155Z" fill="#2F80ED"/>
<path fill-rule="evenodd" clip-rule="evenodd" d="M29.915 141.201C21.5235 134.522 14.5187 126.175 9.4021 116.661L21.45 113.85L63.9375 134.887L29.915 141.201Z" fill="url(#paint1_linear)"/>
<defs>
<linearGradient id="paint0_linear" x1="79.2" y1="-4.91738e-08" x2="80.85" y2="164.587" gradientUnits="userSpaceOnUse">
<stop stop-color="#DBE0EE"/>
<stop offset="1" stop-color="#DBE0EE" stop-opacity="0"/>
</linearGradient>
<linearGradient id="paint1_linear" x1="106.651" y1="68.0407" x2="45.7179" y2="145.168" gradientUnits="userSpaceOnUse">
<stop/>
<stop offset="1" stop-opacity="0"/>
</linearGradient>
</defs>
</svg>
