<svg width="200" height="100" viewBox="0 0 200 100" fill="none" xmlns="http://www.w3.org/2000/svg">
<path fill-rule="evenodd" clip-rule="evenodd" d="M74.5 83.4286C79.4311 83.4286 83.4286 79.4311 83.4286 74.5C83.4286 69.5689 79.4311 65.5714 74.5 65.5714C69.5689 65.5714 65.5714 69.5689 65.5714 74.5C65.5714 79.4311 69.5689 83.4286 74.5 83.4286ZM74.5 87C81.4036 87 87 81.4036 87 74.5C87 67.5964 81.4036 62 74.5 62C67.5964 62 62 67.5964 62 74.5C62 81.4036 67.5964 87 74.5 87Z" fill="#FFFFFF"/>
<path d="M78 74.5C78 76.433 76.433 78 74.5 78C72.567 78 71 76.433 71 74.5C71 72.567 72.567 71 74.5 71C76.433 71 78 72.567 78 74.5Z" fill="#FFFFFF"/>
<path fill-rule="evenodd" clip-rule="evenodd" d="M152.5 83.4286C157.431 83.4286 161.429 79.4311 161.429 74.5C161.429 69.5689 157.431 65.5714 152.5 65.5714C147.569 65.5714 143.571 69.5689 143.571 74.5C143.571 79.4311 147.569 83.4286 152.5 83.4286ZM152.5 87C159.404 87 165 81.4036 165 74.5C165 67.5964 159.404 62 152.5 62C145.596 62 140 67.5964 140 74.5C140 81.4036 145.596 87 152.5 87Z" fill="#FFFFFF"/>
<path d="M156 74.5C156 76.433 154.433 78 152.5 78C150.567 78 149 76.433 149 74.5C149 72.567 150.567 71 152.5 71C154.433 71 156 72.567 156 74.5Z" fill="#FFFFFF"/>
<path fill-rule="evenodd" clip-rule="evenodd" d="M48.9645 26.5556C47.9841 26.5556 47.1893 27.3515 47.1893 28.3333V39.8889C47.1893 40.8707 46.3946 41.6667 45.4142 41.6667C44.4338 41.6667 43.6391 40.8707 43.6391 39.8889V28.3333C43.6391 25.3878 46.0233 23 48.9645 23H83.5799C84.5603 23 85.355 23.7959 85.355 24.7778C85.355 25.7596 84.5603 26.5556 83.5799 26.5556H48.9645ZM119.083 24.7778C119.083 23.7959 119.878 23 120.858 23H130.621C133.562 23 135.947 25.3878 135.947 28.3333V33.6667H148.335C151.155 33.6667 153.808 35.0089 155.481 37.2827L164.28 49.2427C164.888 50.0682 165.851 50.5556 166.875 50.5556C168.516 50.5556 170.108 51.1149 171.389 52.1416L172.942 53.3859C174.243 54.4279 175 56.0054 175 57.6734V70.1111C175 74.0385 171.821 77.2222 167.899 77.2222H163.462C162.481 77.2222 161.686 76.4263 161.686 75.4444C161.686 74.4626 162.481 73.6667 163.462 73.6667H167.899C169.86 73.6667 171.45 72.0748 171.45 70.1111V57.6734C171.45 57.0855 171.183 56.5296 170.725 56.1623L169.171 54.918C168.519 54.3957 167.709 54.1111 166.875 54.1111C164.722 54.1111 162.699 53.0869 161.422 51.3518L152.622 39.3918C151.619 38.0276 150.027 37.2222 148.335 37.2222H135.947V67.4444H143.047C144.028 67.4444 144.822 68.2404 144.822 69.2222C144.822 70.2041 144.028 71 143.047 71H85.355C84.3746 71 83.5799 70.2041 83.5799 69.2222C83.5799 68.2404 84.3746 67.4444 85.355 67.4444H132.396V28.3333C132.396 27.3515 131.602 26.5556 130.621 26.5556H120.858C119.878 26.5556 119.083 25.7596 119.083 24.7778ZM51.6272 28.3333C52.6076 28.3333 53.4024 29.1293 53.4024 30.1111V37.2222C53.4024 38.2041 52.6076 39 51.6272 39C50.6468 39 49.8521 38.2041 49.8521 37.2222V30.1111C49.8521 29.1293 50.6468 28.3333 51.6272 28.3333ZM141.272 40.7778C141.272 39.7959 142.067 39 143.047 39H148.373C148.952 39 149.495 39.283 149.827 39.7583L156.04 48.6472C156.42 49.1902 156.466 49.8997 156.16 50.4877C155.855 51.0756 155.248 51.4444 154.586 51.4444H143.047C142.067 51.4444 141.272 50.6485 141.272 49.6667V40.7778ZM144.822 42.5556V47.8889H151.176L147.449 42.5556H144.822ZM25 45.2222C25 44.2404 25.7948 43.4444 26.7751 43.4444H32.9882C33.9686 43.4444 34.7633 44.2404 34.7633 45.2222C34.7633 46.2041 33.9686 47 32.9882 47H26.7751C25.7948 47 25 46.2041 25 45.2222ZM38.3136 45.2222C38.3136 44.2404 39.1084 43.4444 40.0888 43.4444H67.6035C68.5839 43.4444 69.3787 44.2404 69.3787 45.2222C69.3787 46.2041 68.5839 47 67.6035 47H40.0888C39.1084 47 38.3136 46.2041 38.3136 45.2222ZM32.1006 51.4444C32.1006 50.4626 32.8954 49.6667 33.8757 49.6667H36.5385C37.5188 49.6667 38.3136 50.4626 38.3136 51.4444C38.3136 52.4263 37.5188 53.2222 36.5385 53.2222H33.8757C32.8954 53.2222 32.1006 52.4263 32.1006 51.4444ZM40.0888 51.4444C40.0888 50.4626 40.8835 49.6667 41.8639 49.6667H61.3905C62.3709 49.6667 63.1657 50.4626 63.1657 51.4444C63.1657 52.4263 62.3709 53.2222 61.3905 53.2222H41.8639C40.8835 53.2222 40.0888 52.4263 40.0888 51.4444ZM65.8284 51.4444C65.8284 50.4626 66.6232 49.6667 67.6035 49.6667H80.9172C81.8975 49.6667 82.6923 50.4626 82.6923 51.4444C82.6923 52.4263 81.8975 53.2222 80.9172 53.2222H67.6035C66.6232 53.2222 65.8284 52.4263 65.8284 51.4444ZM140.385 55.8889C140.385 54.9071 141.179 54.1111 142.16 54.1111H149.26C150.241 54.1111 151.035 54.9071 151.035 55.8889C151.035 56.8707 150.241 57.6667 149.26 57.6667H142.16C141.179 57.6667 140.385 56.8707 140.385 55.8889ZM27.6627 57.6667C27.6627 56.6848 28.4575 55.8889 29.4379 55.8889H43.6391C44.6194 55.8889 45.4142 56.6848 45.4142 57.6667C45.4142 58.6485 44.6194 59.4444 43.6391 59.4444H29.4379C28.4575 59.4444 27.6627 58.6485 27.6627 57.6667ZM48.0769 57.6667C48.0769 56.6848 48.8717 55.8889 49.8521 55.8889H72.929C73.9094 55.8889 74.7041 56.6848 74.7041 57.6667C74.7041 58.6485 73.9094 59.4444 72.929 59.4444H49.8521C48.8717 59.4444 48.0769 58.6485 48.0769 57.6667ZM45.4142 61.2222C46.3946 61.2222 47.1893 62.0182 47.1893 63V67.4444H64.9408C65.9212 67.4444 66.716 68.2404 66.716 69.2222C66.716 70.2041 65.9212 71 64.9408 71H44.9704C43.7449 71 42.7515 71.9949 42.7515 73.2222C42.7515 74.4495 43.7449 75.4444 44.9704 75.4444H64.0533C65.0336 75.4444 65.8284 76.2404 65.8284 77.2222C65.8284 78.2041 65.0336 79 64.0533 79H44.9704C41.7842 79 39.2012 76.4132 39.2012 73.2222C39.2012 70.4902 41.0946 68.201 43.6391 67.599V63C43.6391 62.0182 44.4338 61.2222 45.4142 61.2222ZM83.5799 77.2222C83.5799 76.2404 84.3746 75.4444 85.355 75.4444H142.16C143.14 75.4444 143.935 76.2404 143.935 77.2222C143.935 78.2041 143.14 79 142.16 79H85.355C84.3746 79 83.5799 78.2041 83.5799 77.2222Z" fill="#FFFFFF"/>
<path fill-rule="evenodd" clip-rule="evenodd" d="M102 53.48C112.206 53.48 120.48 45.2062 120.48 35C120.48 24.7938 112.206 16.52 102 16.52C91.7938 16.52 83.52 24.7938 83.52 35C83.52 45.2062 91.7938 53.48 102 53.48ZM102 57C114.15 57 124 47.1503 124 35C124 22.8497 114.15 13 102 13C89.8497 13 80 22.8497 80 35C80 47.1503 89.8497 57 102 57Z" fill="#FFFFFF"/>
<path fill-rule="evenodd" clip-rule="evenodd" d="M96.3602 19.1902C96.7489 18.886 97.3112 18.9539 97.6161 19.3419L101.105 23.7823V19.8926C101.105 19.3997 101.506 19 102 19C102.494 19 102.895 19.3997 102.895 19.8926V23.7823L106.384 19.3419C106.689 18.9539 107.251 18.886 107.64 19.1902C108.029 19.4944 108.097 20.0554 107.792 20.4434L102.895 26.6754V43.2789L108.757 49.4958C109.095 49.8548 109.078 50.4197 108.718 50.7575C108.359 51.0953 107.793 51.0781 107.454 50.7191L102.895 45.884V50.1074C102.895 50.6004 102.494 51 102 51C101.506 51 101.105 50.6004 101.105 50.1074V45.884L96.546 50.7191C96.2075 51.0781 95.6413 51.0953 95.2815 50.7575C94.9217 50.4197 94.9045 49.8548 95.2431 49.4958L101.105 43.2789V26.6754L96.2082 20.4434C95.9033 20.0554 95.9714 19.4944 96.3602 19.1902Z" fill="#FFFFFF"/>
<path fill-rule="evenodd" clip-rule="evenodd" d="M112.204 21.7135C112.653 21.873 112.884 22.3869 112.72 22.8615L110.803 28.3983L114.004 26.4343C114.421 26.1783 114.949 26.3195 115.183 26.7497C115.417 27.1798 115.268 27.7361 114.85 27.9922L111.65 29.9561L117.12 30.9608C117.588 31.0469 117.892 31.5165 117.797 32.0097C117.702 32.5028 117.246 32.8328 116.777 32.7467L109.331 31.379L95.9582 39.5845L93.8378 47.995C93.715 48.482 93.2407 48.783 92.7785 48.6673C92.3163 48.5516 92.0411 48.0629 92.1639 47.5758L93.853 40.8763L90.3989 42.9957C89.9816 43.2518 89.4539 43.1106 89.2202 42.6804C88.9865 42.2502 89.1353 41.6939 89.5526 41.4379L93.0067 39.3184L86.703 37.5233C86.2447 37.3928 85.9841 36.8952 86.1209 36.4119C86.2577 35.9286 86.7401 35.6426 87.1984 35.7731L95.1119 38.0266L108.485 29.8212L111.093 22.284C111.257 21.8095 111.755 21.554 112.204 21.7135Z" fill="#FFFFFF"/>
<path fill-rule="evenodd" clip-rule="evenodd" d="M117.797 37.4204C117.892 37.9135 117.588 38.3831 117.119 38.4692L111.65 39.4739L114.85 41.4379C115.268 41.6939 115.416 42.2502 115.183 42.6804C114.949 43.1106 114.421 43.2518 114.004 42.9957L110.803 41.0318L112.72 46.5686C112.884 47.0431 112.653 47.5571 112.204 47.7166C111.754 47.876 111.257 47.6206 111.093 47.1461L108.484 39.6089L95.1118 31.4034L87.1982 33.657C86.7399 33.7875 86.2575 33.5015 86.1207 33.0182C85.9839 32.5349 86.2445 32.0373 86.7028 31.9068L93.0066 30.1116L89.5525 27.9922C89.1352 27.7362 88.9864 27.1799 89.2201 26.7497C89.4537 26.3195 89.9815 26.1783 90.3987 26.4344L93.8528 28.5538L92.1638 21.8542C92.041 21.3672 92.3161 20.8785 92.7784 20.7628C93.2406 20.647 93.7148 20.948 93.8376 21.4351L95.9581 29.8456L109.331 38.0511L116.777 36.6834C117.245 36.5973 117.702 36.9272 117.797 37.4204Z" fill="#FFFFFF"/>
</svg>
