<svg width="200" height="100" viewBox="0 0 200 100" fill="none" xmlns="http://www.w3.org/2000/svg">
<path fill-rule="evenodd" clip-rule="evenodd" d="M54.8857 24.2759C54.8857 21.3621 57.265 19 60.2 19H115.114C115.529 19 115.93 19.1442 116.248 19.4076L121.07 23.3966H125.504C128.358 23.3966 131.124 24.3738 133.337 26.1635L154.087 42.9489L170.56 48.8959C172.689 49.6644 174.515 51.0881 175.771 52.9593L175.917 53.1766C177.275 55.1988 178 57.5748 178 60.0051V64.7241C178 67.6379 175.621 70 172.686 70H170.914C169.936 70 169.143 69.2126 169.143 68.2414C169.143 67.2701 169.936 66.4828 170.914 66.4828H172.686C173.664 66.4828 174.457 65.6954 174.457 64.7241V60.0051C174.457 58.2692 173.94 56.572 172.97 55.1276L172.824 54.9103C171.986 53.6628 170.769 52.7137 169.349 52.2014L152.595 46.1527C152.408 46.0855 152.235 45.9877 152.081 45.8633L131.099 28.8902C129.518 27.6118 127.542 26.9138 125.504 26.9138H122.2V33.069C122.2 34.0402 121.407 34.8276 120.429 34.8276C119.45 34.8276 118.657 34.0402 118.657 33.069V25.9789L114.473 22.5172H60.2C59.2217 22.5172 58.4286 23.3046 58.4286 24.2759V28.6724C58.4286 29.6437 57.6355 30.431 56.6571 30.431C55.6788 30.431 54.8857 29.6437 54.8857 28.6724V24.2759ZM62.8571 26.9138C62.8571 25.9425 63.6502 25.1552 64.6286 25.1552H71.7143C72.6926 25.1552 73.4857 25.9425 73.4857 26.9138C73.4857 27.8851 72.6926 28.6724 71.7143 28.6724H66.4V33.9483C66.4 34.9195 65.6069 35.7069 64.6286 35.7069C63.6502 35.7069 62.8571 34.9195 62.8571 33.9483V26.9138ZM46.9143 33.9483C46.9143 32.977 47.7074 32.1897 48.6857 32.1897H56.6571C57.6355 32.1897 58.4286 32.977 58.4286 33.9483C58.4286 34.9195 57.6355 35.7069 56.6571 35.7069H48.6857C47.7074 35.7069 46.9143 34.9195 46.9143 33.9483ZM123.971 34.8276C123.971 33.8563 124.765 33.069 125.743 33.069H130.171C130.578 33.069 130.973 33.208 131.288 33.4627L145.46 44.8937C146.042 45.3632 146.263 46.1455 146.012 46.847C145.761 47.5485 145.093 48.0172 144.343 48.0172H125.743C124.765 48.0172 123.971 47.2299 123.971 46.2586V34.8276ZM127.514 36.5862V44.5H139.353L129.542 36.5862H127.514ZM23 40.1034C23 39.1322 23.7931 38.3448 24.7714 38.3448H33.6286C34.6069 38.3448 35.4 39.1322 35.4 40.1034C35.4 41.0747 34.6069 41.8621 33.6286 41.8621H24.7714C23.7931 41.8621 23 41.0747 23 40.1034ZM38.9429 40.1034C38.9429 39.1322 39.736 38.3448 40.7143 38.3448H62.8571C63.8355 38.3448 64.6286 39.1322 64.6286 40.1034C64.6286 41.0747 63.8355 41.8621 62.8571 41.8621H40.7143C39.736 41.8621 38.9429 41.0747 38.9429 40.1034ZM32.7429 46.2586C32.7429 45.2874 33.536 44.5 34.5143 44.5H42.4857C43.464 44.5 44.2571 45.2874 44.2571 46.2586C44.2571 47.2299 43.464 48.0172 42.4857 48.0172H34.5143C33.536 48.0172 32.7429 47.2299 32.7429 46.2586ZM46.0286 46.2586C46.0286 45.2874 46.8217 44.5 47.8 44.5H69.0571C70.0355 44.5 70.8286 45.2874 70.8286 46.2586C70.8286 47.2299 70.0355 48.0172 69.0571 48.0172H47.8C46.8217 48.0172 46.0286 47.2299 46.0286 46.2586ZM73.4857 46.2586C73.4857 45.2874 74.2788 44.5 75.2571 44.5H84.1143C85.0926 44.5 85.8857 45.2874 85.8857 46.2586C85.8857 47.2299 85.0926 48.0172 84.1143 48.0172H75.2571C74.2788 48.0172 73.4857 47.2299 73.4857 46.2586ZM38.9429 52.4138C38.9429 51.4425 39.736 50.6552 40.7143 50.6552H47.8C48.7783 50.6552 49.5714 51.4425 49.5714 52.4138C49.5714 53.3851 48.7783 54.1724 47.8 54.1724H40.7143C39.736 54.1724 38.9429 53.3851 38.9429 52.4138ZM52.2286 52.4138C52.2286 51.4425 53.0217 50.6552 54 50.6552H72.6C73.5783 50.6552 74.3714 51.4425 74.3714 52.4138C74.3714 53.3851 73.5783 54.1724 72.6 54.1724H54C53.0217 54.1724 52.2286 53.3851 52.2286 52.4138ZM123.971 52.4138C123.971 51.4425 124.765 50.6552 125.743 50.6552H132.829C133.807 50.6552 134.6 51.4425 134.6 52.4138C134.6 53.3851 133.807 54.1724 132.829 54.1724H125.743C124.765 54.1724 123.971 53.3851 123.971 52.4138ZM54.8857 61.2069C54.8857 60.2356 55.6788 59.4483 56.6571 59.4483H69.9429C70.9212 59.4483 71.7143 60.2356 71.7143 61.2069C71.7143 62.1782 70.9212 62.9655 69.9429 62.9655H58.4286V64.7241C58.4286 65.6954 59.2217 66.4828 60.2 66.4828H68.1714C69.1498 66.4828 69.9429 67.2701 69.9429 68.2414C69.9429 69.2126 69.1498 70 68.1714 70H60.2C57.265 70 54.8857 67.6379 54.8857 64.7241V61.2069ZM87.6571 61.2069C87.6571 60.2356 88.4502 59.4483 89.4286 59.4483H102.714C103.693 59.4483 104.486 60.2356 104.486 61.2069C104.486 62.1782 103.693 62.9655 102.714 62.9655H89.4286C88.4502 62.9655 87.6571 62.1782 87.6571 61.2069ZM108.914 61.2069C108.914 60.2356 109.707 59.4483 110.686 59.4483H121.314C122.293 59.4483 123.086 60.2356 123.086 61.2069C123.086 62.1782 122.293 62.9655 121.314 62.9655H110.686C109.707 62.9655 108.914 62.1782 108.914 61.2069ZM89.4286 68.2414C89.4286 67.2701 90.2217 66.4828 91.2 66.4828H147.886C148.864 66.4828 149.657 67.2701 149.657 68.2414C149.657 69.2126 148.864 70 147.886 70H91.2C90.2217 70 89.4286 69.2126 89.4286 68.2414Z" fill="#04205F"/>
<path fill-rule="evenodd" clip-rule="evenodd" d="M80 77.4286C84.7339 77.4286 88.5714 73.4311 88.5714 68.5C88.5714 63.5689 84.7339 59.5714 80 59.5714C75.2661 59.5714 71.4286 63.5689 71.4286 68.5C71.4286 73.4311 75.2661 77.4286 80 77.4286ZM80 81C86.6274 81 92 75.4036 92 68.5C92 61.5964 86.6274 56 80 56C73.3726 56 68 61.5964 68 68.5C68 75.4036 73.3726 81 80 81Z" fill="#04205F"/>
<path fill-rule="evenodd" clip-rule="evenodd" d="M159.5 77.4286C164.431 77.4286 168.429 73.4311 168.429 68.5C168.429 63.5689 164.431 59.5714 159.5 59.5714C154.569 59.5714 150.571 63.5689 150.571 68.5C150.571 73.4311 154.569 77.4286 159.5 77.4286ZM159.5 81C166.404 81 172 75.4036 172 68.5C172 61.5964 166.404 56 159.5 56C152.596 56 147 61.5964 147 68.5C147 75.4036 152.596 81 159.5 81Z" fill="#04205F"/>
<path d="M83 68.5C83 70.433 81.433 72 79.5 72C77.567 72 76 70.433 76 68.5C76 66.567 77.567 65 79.5 65C81.433 65 83 66.567 83 68.5Z" fill="#04205F"/>
<path d="M163 68.5C163 70.433 161.433 72 159.5 72C157.567 72 156 70.433 156 68.5C156 66.567 157.567 65 159.5 65C161.433 65 163 66.567 163 68.5Z" fill="#04205F"/>
</svg>
