<svg width="44" height="44" viewBox="0 0 44 44" fill="none" xmlns="http://www.w3.org/2000/svg">
<g clip-path="url(#clip0)">
<rect width="44" height="44" rx="22" fill="#18A754"/>
<path d="M16.671 13.716C17.367 13.2713 18.1113 12.9427 18.904 12.73C19.6967 12.5173 20.6053 12.411 21.63 12.411C22.5193 12.411 23.3217 12.5367 24.037 12.788C24.7523 13.0393 25.3613 13.3873 25.864 13.832C26.386 14.2573 26.7823 14.76 27.053 15.34C27.343 15.92 27.488 16.5483 27.488 17.225C27.488 18.3657 27.1883 19.2937 26.589 20.009C25.9897 20.7243 25.2743 21.2463 24.443 21.575C25.545 21.807 26.4343 22.3193 27.111 23.112C27.7877 23.8853 28.126 24.823 28.126 25.925C28.126 26.853 27.952 27.6553 27.604 28.332C27.256 29.0087 26.7727 29.5693 26.154 30.014C25.5547 30.4587 24.8393 30.7873 24.008 31C23.1767 31.2127 22.2873 31.319 21.34 31.319C20.354 31.319 19.4163 31.2223 18.527 31.029C17.657 30.8357 16.8933 30.565 16.236 30.217L17.077 27.491C17.6763 27.7617 18.2563 27.984 18.817 28.158C19.3777 28.3127 20.0253 28.39 20.76 28.39C21.7653 28.39 22.5773 28.1773 23.196 27.752C23.834 27.3073 24.153 26.6693 24.153 25.838C24.153 25.026 23.863 24.3977 23.283 23.953C22.703 23.489 21.8523 23.257 20.731 23.257H18.643V20.415H20.151C21.2337 20.415 22.0747 20.183 22.674 19.719C23.2733 19.2357 23.573 18.559 23.573 17.689C23.573 16.935 23.312 16.355 22.79 15.949C22.2873 15.5237 21.6687 15.311 20.934 15.311C20.412 15.311 19.8997 15.3883 19.397 15.543C18.9137 15.6977 18.411 15.949 17.889 16.297L16.671 13.716Z" fill="white"/>
</g>
<defs>
<clipPath id="clip0">
<rect width="44" height="44" rx="22" fill="white"/>
</clipPath>
</defs>
</svg>
