<svg width="44" height="44" viewBox="0 0 44 44" fill="none" xmlns="http://www.w3.org/2000/svg">
<g clip-path="url(#clip0)">
<rect width="44" height="44" rx="22" fill="#18A754"/>
<path d="M21.8296 15.369C21.2109 15.369 20.6213 15.485 20.0606 15.717C19.5193 15.9297 18.9393 16.2873 18.3206 16.79L16.7256 14.354C17.4796 13.7353 18.2916 13.2617 19.1616 12.933C20.0509 12.585 21.0949 12.411 22.2936 12.411C23.2216 12.411 24.0433 12.5463 24.7586 12.817C25.4933 13.0877 26.1119 13.4647 26.6146 13.948C27.1173 14.4313 27.4943 15.0017 27.7456 15.659C28.0163 16.297 28.1516 17.0027 28.1516 17.776C28.1516 19.052 27.6973 20.3957 26.7886 21.807C25.8799 23.199 24.5749 24.6973 22.8736 26.302L21.0466 28.013H28.3546V31H17.1606L16.4646 28.448L19.0746 25.838C20.0413 24.8713 20.8533 24.0207 21.5106 23.286C22.1679 22.532 22.6996 21.8553 23.1056 21.256C23.5116 20.6567 23.8016 20.1057 23.9756 19.603C24.1496 19.1003 24.2366 18.5977 24.2366 18.095C24.2366 17.2057 24.0046 16.529 23.5406 16.065C23.0959 15.601 22.5256 15.369 21.8296 15.369Z" fill="white"/>
</g>
<defs>
<clipPath id="clip0">
<rect width="44" height="44" rx="22" fill="white"/>
</clipPath>
</defs>
</svg>
