<svg width="44" height="44" viewBox="0 0 44 44" fill="none" xmlns="http://www.w3.org/2000/svg">
<g clip-path="url(#clip0)">
<rect width="44" height="44" rx="22" fill="#18A754"/>
<path d="M27.158 12.672V15.659L20.778 15.717L20.372 19.371C20.6427 19.3323 20.8554 19.313 21.01 19.313C21.184 19.313 21.4064 19.313 21.677 19.313C22.489 19.313 23.272 19.429 24.026 19.661C24.78 19.8737 25.447 20.212 26.027 20.676C26.607 21.1207 27.071 21.7007 27.419 22.416C27.767 23.1313 27.941 23.982 27.941 24.968C27.941 25.838 27.7864 26.6597 27.477 27.433C27.187 28.187 26.7327 28.854 26.114 29.434C25.5147 30.014 24.7414 30.478 23.794 30.826C22.8467 31.1547 21.735 31.319 20.459 31.319C19.531 31.319 18.6804 31.2223 17.907 31.029C17.1337 30.8357 16.4667 30.6037 15.906 30.333L16.718 27.52C17.2207 27.752 17.7427 27.9453 18.284 28.1C18.8254 28.2547 19.4344 28.332 20.111 28.332C21.3677 28.332 22.3247 28.042 22.982 27.462C23.6394 26.882 23.968 26.128 23.968 25.2C23.968 24.1367 23.591 23.344 22.837 22.822C22.1024 22.3 21.155 22.039 19.995 22.039C19.4924 22.039 18.98 22.0777 18.458 22.155C17.936 22.213 17.443 22.2903 16.979 22.387L17.878 12.73L27.158 12.672Z" fill="white"/>
</g>
<defs>
<clipPath id="clip0">
<rect width="44" height="44" rx="22" fill="white"/>
</clipPath>
</defs>
</svg>
