<svg width="195" height="195" viewBox="0 0 195 195" fill="none" xmlns="http://www.w3.org/2000/svg">
<g clip-path="url(#clip0)">
<path d="M191.545 83.538C189.524 80.4852 186.459 78.3816 182.896 77.5841C185.194 73.1879 185.1 67.7026 182.173 63.2826C180.09 60.136 176.948 58.1038 173.527 57.3346C174.137 56.1712 174.588 54.9156 174.857 53.5915C175.604 49.9093 174.875 46.1573 172.8 43.0256C170.778 39.9713 167.713 37.8676 164.15 37.0717C166.449 32.6754 166.355 27.1902 163.427 22.7686C159.147 16.3044 150.402 14.5266 143.936 18.8083L129.937 28.0798C122.474 24.295 114.537 21.6097 106.3 20.0803C103.696 16.1274 100.669 12.4527 97.2796 9.16776L91.4879 3.55454C87.2463 -0.557551 80.5947 -1.17496 75.6703 2.08764C69.8443 5.94533 68.2435 13.8244 72.1012 19.6503C72.253 19.8809 72.4017 20.113 72.549 20.3451C53.5641 24.1864 36.2617 34.2614 23.4553 49.0241C9.55841 65.0455 1.90402 85.5643 1.90402 106.8C1.90402 110.871 2.18223 114.949 2.73269 118.918C6.97422 149.775 27.5287 176.367 56.3729 188.318C67.0697 192.751 78.4196 195 90.1028 195C108.606 195 126.317 189.334 141.324 178.615C156.005 168.126 166.989 153.652 173.09 136.757C173.66 135.183 172.843 133.444 171.269 132.876C169.694 132.307 167.956 133.123 167.388 134.698C161.706 150.431 151.475 163.91 137.798 173.68C123.827 183.661 107.334 188.936 90.1028 188.936C81.1942 188.936 72.4955 187.531 64.1701 184.757L88.8397 168.421C88.8412 168.419 88.8427 168.419 88.8442 168.418C88.8456 168.418 88.8456 168.416 88.8471 168.415L109.35 154.838H109.351C111.191 153.618 112.449 151.755 112.889 149.59C113.329 147.426 112.901 145.218 111.681 143.378L111.41 142.967L115.393 140.329C118.234 138.447 121.652 137.709 125.017 138.249C129.889 139.032 134.837 137.961 138.95 135.237L171.983 113.361C171.757 116.227 171.385 119.076 170.866 121.877C170.559 123.524 171.647 125.107 173.294 125.412C173.48 125.447 173.667 125.464 173.85 125.464C175.283 125.464 176.556 124.443 176.827 122.984C177.668 118.463 178.151 113.831 178.276 109.194L187.585 103.029C190.717 100.955 192.855 97.7846 193.601 94.1039C194.35 90.4218 193.619 86.6697 191.545 83.538ZM124.05 31.9777L114.786 38.1131L112.962 33.1991C112.2 31.149 111.327 29.1391 110.36 27.1723C115.06 28.364 119.636 29.9707 124.05 31.9777ZM28.0361 52.9979C40.3441 38.8094 57.1093 29.2715 75.4501 25.9643C78.3928 33.0935 79.098 41.0588 77.3395 48.6507L69.947 80.5879C68.7851 79.3471 67.2765 78.4917 65.5775 78.1465C63.4114 77.7046 61.2051 78.1346 59.3647 79.3545L38.4249 93.2202C38.4234 93.2202 38.4234 93.2202 38.4219 93.2217C38.4219 93.2217 38.4204 93.2217 38.4204 93.2232L8.21945 113.223C8.05431 111.092 7.96802 108.946 7.96802 106.8C7.96802 87.0253 15.0958 67.9168 28.0361 52.9979ZM106.947 148.381C106.829 148.958 106.493 149.457 106.001 149.782H106.002L87.9947 161.707L54.5727 111.863C53.6399 110.472 51.7565 110.102 50.3654 111.034C48.9759 111.967 48.604 113.849 49.5368 115.24L82.9379 165.055L57.2313 182.08C31.6869 170.907 13.4072 147.311 9.01241 119.855L39.2491 99.8972L42.7289 105.089C43.3151 105.961 44.2732 106.433 45.2506 106.433C45.8308 106.433 46.4185 106.268 46.9362 105.919C48.3272 104.987 48.6992 103.103 47.7664 101.712L44.3104 96.5572L62.7136 84.4099C63.2031 84.084 63.7907 83.971 64.368 84.0885C64.9452 84.206 65.4436 84.5423 65.7694 85.0332L106.626 146.727C106.95 147.216 107.064 147.804 106.947 148.381ZM187.659 92.8959C187.234 94.9906 186.018 96.7937 184.236 97.9735L173.594 105.021C173.591 105.022 173.588 105.025 173.584 105.027L135.601 130.181C132.759 132.063 129.342 132.803 125.976 132.261C121.106 131.48 116.157 132.55 112.044 135.274L108.061 137.912L74.5991 87.3838L83.2488 50.0194C85.4759 40.3938 84.3021 30.2549 80.0591 21.4222C80.0204 21.33 79.9788 21.2407 79.9312 21.1529C79.1159 19.4837 78.1905 17.8636 77.1565 16.3014C75.1451 13.2635 75.9797 9.15586 79.0192 7.14295C81.587 5.44248 85.0564 5.76383 87.2672 7.90765L93.0589 13.5224C99.3238 19.5968 104.241 27.1306 107.276 35.3102L110.43 43.8066C110.436 43.823 110.442 43.8364 110.448 43.8513C110.455 43.8706 110.464 43.8914 110.471 43.9108C110.494 43.9629 110.514 44.0105 110.537 44.0506C110.598 44.1786 110.665 44.305 110.745 44.4255C111.67 45.8225 113.551 46.2049 114.946 45.2795L147.285 23.8651C150.963 21.4297 155.936 22.4398 158.372 26.1175C160.807 29.7952 159.797 34.7687 156.119 37.2041L153.312 39.0638C153.312 39.0638 153.311 39.0638 153.309 39.0652L147.047 43.213C147.038 43.219 147.032 43.2249 147.023 43.2294C146.988 43.2547 146.954 43.2785 146.925 43.3023C145.631 44.253 145.296 46.0606 146.193 47.4144C147.117 48.8114 148.999 49.1937 150.396 48.2684L156.662 44.1176C158.443 42.9408 160.575 42.5257 162.668 42.9512C164.762 43.3767 166.566 44.5922 167.745 46.3745C168.924 48.1553 169.341 50.2902 168.915 52.3834C168.49 54.4782 167.274 56.2813 165.492 57.4611L156.42 63.47C155.023 64.3939 154.641 66.2744 155.566 67.6714C156.149 68.5521 157.113 69.0297 158.097 69.0297C158.671 69.0297 159.253 68.866 159.767 68.5253L161.172 67.5955L166.031 64.3775C169.71 61.9421 174.682 62.9523 177.117 66.63C179.553 70.3091 178.543 75.2811 174.865 77.718L170.333 80.7188C170.309 80.7337 170.286 80.75 170.262 80.7664L165.793 83.7255C164.396 84.6494 164.013 86.5314 164.939 87.9283C165.522 88.8091 166.486 89.2866 167.469 89.2866C168.044 89.2866 168.625 89.123 169.14 88.7823L170.545 87.8525C170.545 87.8525 170.545 87.851 170.546 87.851L175.405 84.6345C177.186 83.4547 179.319 83.0382 181.414 83.4651C183.509 83.8891 185.312 85.1061 186.492 86.8869C187.67 88.6677 188.085 90.8026 187.659 92.8959Z" fill="#2F80ED" fill-opacity="0.2"/>
</g>
<defs>
<clipPath id="clip0">
<rect width="195" height="195" fill="white"/>
</clipPath>
</defs>
</svg>
