<svg width="224" height="224" viewBox="0 0 224 224" fill="none" xmlns="http://www.w3.org/2000/svg">
<g clip-path="url(#clip0)">
<path d="M223.568 122.347C221.557 102.118 212.519 83.0462 198.119 68.6456C185.813 56.3399 170.751 48.4319 154.901 44.9157V33.7995C161.375 32.1891 166.187 26.3295 166.187 19.3649C166.187 11.1625 159.514 4.48962 151.311 4.48962H119.811C111.608 4.48962 104.936 11.1625 104.936 19.3649C104.936 26.3291 109.747 32.1886 116.22 33.7995V44.9468C100.42 48.4779 85.407 56.3749 73.1358 68.6461C70.4504 71.3315 67.9741 74.1486 65.7074 77.0764C65.5976 77.0681 65.4878 77.0598 65.3758 77.0598H34.1986C31.7827 77.0598 29.8235 79.0185 29.8235 81.4348C29.8235 83.8512 31.7827 85.8099 34.1986 85.8099H59.7542C56.5464 91.1803 53.9599 96.8202 51.9911 102.626H4.37507C1.95916 102.626 0 104.585 0 107.001C0 109.417 1.95916 111.376 4.37507 111.376H49.5188C48.2579 116.911 47.5342 122.544 47.3474 128.192H28.0004C25.5845 128.192 23.6254 130.151 23.6254 132.568C23.6254 134.984 25.5845 136.943 28.0004 136.943H47.487C47.8563 142.606 48.7667 148.239 50.2188 153.759H21.8753C19.4594 153.759 17.5003 155.718 17.5003 158.134C17.5003 160.55 19.4594 162.509 21.8753 162.509H53.011C57.3029 173.863 64.0103 184.504 73.1358 193.63C87.5499 208.044 106.641 217.084 126.891 219.085C129.782 219.37 132.674 219.511 135.562 219.511C152.635 219.511 169.49 214.57 183.792 205.257C185.817 203.938 186.39 201.228 185.071 199.203C183.752 197.178 181.042 196.605 179.017 197.924C147.711 218.311 105.783 213.903 79.3231 187.443C48.2767 156.396 48.2767 105.881 79.3231 74.8337C110.369 43.7878 160.885 43.7878 191.932 74.8337C218.357 101.259 222.789 143.151 202.469 174.442C201.153 176.469 201.73 179.179 203.756 180.494C205.783 181.81 208.492 181.234 209.808 179.208C220.664 162.488 225.551 142.295 223.568 122.347ZM113.686 19.3653C113.686 15.9877 116.433 13.2402 119.811 13.2402H151.311C154.689 13.2402 157.436 15.9877 157.436 19.3653C157.436 22.7428 154.689 25.4904 151.311 25.4904H150.526H120.595H119.811C116.433 25.4904 113.686 22.7424 113.686 19.3653ZM124.97 43.4426V34.2405H146.151V43.4269C139.118 42.5903 132.002 42.5956 124.97 43.4426Z" fill="#2F80ED" fill-opacity="0.2"/>
<path d="M195.028 186.159C193.873 186.159 192.748 186.627 191.935 187.441C191.117 188.255 190.653 189.383 190.653 190.534C190.653 191.685 191.117 192.813 191.935 193.627C192.748 194.445 193.873 194.909 195.028 194.909C196.178 194.909 197.303 194.445 198.121 193.627C198.935 192.813 199.403 191.685 199.403 190.534C199.403 189.383 198.935 188.255 198.121 187.441C197.303 186.627 196.178 186.159 195.028 186.159Z" fill="#2F80ED" fill-opacity="0.2"/>
<path d="M135.628 63.2673C98.2046 63.2673 67.7581 93.7134 67.7581 131.137C67.7581 168.561 98.2046 199.007 135.628 199.007C173.052 199.007 203.498 168.561 203.498 131.137C203.498 93.7134 173.052 63.2673 135.628 63.2673ZM135.628 190.257C103.029 190.257 76.5082 163.736 76.5082 131.137C76.5082 98.5387 103.029 72.0175 135.628 72.0175C168.227 72.0175 194.748 98.5387 194.748 131.137C194.748 163.736 168.227 190.257 135.628 190.257Z" fill="#2F80ED" fill-opacity="0.2"/>
<path d="M163.303 97.2755L141.633 118.945C139.821 118.049 137.783 117.543 135.628 117.543C133.473 117.543 131.435 118.049 129.623 118.945L119.925 109.247C118.216 107.538 115.446 107.538 113.737 109.247C112.028 110.955 112.028 113.725 113.737 115.434L123.435 125.132C122.539 126.944 122.033 128.982 122.033 131.137C122.033 138.633 128.131 144.732 135.628 144.732C143.125 144.732 149.223 138.633 149.223 131.137C149.223 128.982 148.717 126.944 147.821 125.132L168.854 104.098L169.49 103.463C171.199 101.754 171.199 98.984 169.49 97.2755C167.782 95.567 165.012 95.567 163.303 97.2755ZM135.628 135.983C132.957 135.983 130.783 133.809 130.783 131.138C130.783 128.466 132.957 126.293 135.628 126.293C138.299 126.293 140.473 128.466 140.473 131.138C140.473 133.809 138.299 135.983 135.628 135.983Z" fill="#2F80ED" fill-opacity="0.2"/>
<path d="M182.405 126.816H178.352C175.936 126.816 173.977 128.775 173.977 131.191C173.977 133.607 175.936 135.566 178.352 135.566H182.405C184.821 135.566 186.78 133.607 186.78 131.191C186.78 128.775 184.821 126.816 182.405 126.816Z" fill="#2F80ED" fill-opacity="0.2"/>
<path d="M92.9026 126.709H88.8497C86.4338 126.709 84.4747 128.668 84.4747 131.084C84.4747 133.5 86.4338 135.459 88.8497 135.459H92.9026C95.3185 135.459 97.2776 133.5 97.2776 131.084C97.2776 128.668 95.3185 126.709 92.9026 126.709Z" fill="#2F80ED" fill-opacity="0.2"/>
<path d="M135.681 92.7876C138.096 92.7876 140.056 90.8289 140.056 88.4126V84.3596C140.056 81.9433 138.096 79.9846 135.681 79.9846C133.265 79.9846 131.306 81.9433 131.306 84.3596V88.4126C131.306 90.8289 133.265 92.7876 135.681 92.7876Z" fill="#2F80ED" fill-opacity="0.2"/>
<path d="M135.574 169.487C133.158 169.487 131.199 171.446 131.199 173.862V177.915C131.199 180.331 133.158 182.29 135.574 182.29C137.99 182.29 139.949 180.331 139.949 177.915V173.862C139.949 171.446 137.99 169.487 135.574 169.487Z" fill="#2F80ED" fill-opacity="0.2"/>
<path d="M4.375 153.758C3.22438 153.758 2.09563 154.226 1.28188 155.039C0.468127 155.853 1.90735e-06 156.982 1.90735e-06 158.133C1.90735e-06 159.288 0.467689 160.412 1.28188 161.226C2.09606 162.039 3.22438 162.508 4.375 162.508C5.52563 162.508 6.65438 162.039 7.46769 161.226C8.28144 160.412 8.75 159.283 8.75 158.133C8.75 156.982 8.28188 155.853 7.46769 155.039C6.65438 154.226 5.52563 153.758 4.375 153.758Z" fill="#2F80ED" fill-opacity="0.2"/>
</g>
<defs>
<clipPath id="clip0">
<rect width="224" height="224" fill="white"/>
</clipPath>
</defs>
</svg>
