<?xml version="1.0" encoding="iso-8859-1"?>
<!-- Generator: Adobe Illustrator 17.0.1, SVG Export Plug-In . SVG Version: 6.00 Build 0)  -->
<!DOCTYPE svg PUBLIC "-//W3C//DTD SVG 1.1//EN" "http://www.w3.org/Graphics/SVG/1.1/DTD/svg11.dtd">
<svg version="1.1" xmlns="http://www.w3.org/2000/svg" xmlns:xlink="http://www.w3.org/1999/xlink" x="0px" y="0px" width="70px"
	 height="70px" viewBox="0 0 70 70" style="enable-background:new 0 0 70 70;" xml:space="preserve">
<g id="Google-Plus">
	<rect style="fill:#DA4E3F;" width="70" height="70"/>
	<g>
		<path style="fill-rule:evenodd;clip-rule:evenodd;fill:#FFFFFF;" d="M25.877,32.693v5.474h9.055
			c-0.365,2.349-2.737,6.888-9.055,6.888c-5.451,0-9.899-4.516-9.899-10.081c0-5.565,4.448-10.081,9.899-10.081
			c3.102,0,5.177,1.323,6.364,2.463l4.334-4.174c-2.783-2.6-6.386-4.174-10.697-4.174c-8.827,0-15.966,7.139-15.966,15.966
			c0,8.827,7.139,15.966,15.966,15.966c9.215,0,15.327-6.478,15.327-15.601c0-1.049-0.114-1.847-0.251-2.646H25.877L25.877,32.693
			L25.877,32.693z M25.877,32.693"/>
		<polyline style="fill-rule:evenodd;clip-rule:evenodd;fill:#FFFFFF;" points="60.089,32.693 55.528,32.693 55.528,28.131 
			50.966,28.131 50.966,32.693 46.404,32.693 46.404,37.254 50.966,37.254 50.966,41.816 55.528,41.816 55.528,37.254 
			60.089,37.254 		"/>
	</g>
</g>
</svg>
