<svg id="Layer_2" xmlns="http://www.w3.org/2000/svg" viewBox="0 0 25 25"><style>.st0{fill:#ffffff;}</style><path class="st0" d="M12.5 1.2c-6.2 0-11.3 5-11.3 11.3s5 11.2 11.3 11.2 11.3-5 11.3-11.2S18.7 1.2 12.5 1.2zm9.7 10.5h-3.4C18.6 8.4 17.3 5.4 15 3c3.9 1.1 6.9 4.6 7.2 8.7zm-10.5 0H8.1c.2-3 1.5-5.8 3.6-7.9v7.9zm0 1.5v8.1c-2.2-2.2-3.5-5-3.6-8.1h3.6zm1.5 8.5v-8.5h4c-.1 3.3-1.5 6.3-4 8.5zm0-10V3.5c2.4 2.1 3.8 5.1 4 8.3h-4zm-2.7-8.8c-2.3 2.4-3.7 5.5-3.9 8.8H2.8c.3-4.3 3.5-7.9 7.7-8.8zM2.8 13.2h3.8c.2 3.3 1.5 6.4 3.7 8.7-4.1-.9-7.2-4.4-7.5-8.7zm12.4 8.6c2.1-2.4 3.4-5.4 3.5-8.6h3.4c-.2 4.1-3 7.5-6.9 8.6z"/></svg>