<svg id="Layer_2" xmlns="http://www.w3.org/2000/svg" viewBox="0 0 25 25"><style>.st0{fill:#ffffff;}</style><path class="st0" d="M12.5 1.3c-6.2 0-11.3 5-11.3 11.3s5 11.3 11.3 11.3 11.3-5 11.3-11.3S18.7 1.3 12.5 1.3zm0 21c-5.4 0-9.8-4.4-9.8-9.8s4.4-9.8 9.8-9.8 9.8 4.4 9.8 9.8-4.4 9.8-9.8 9.8z"/><path class="st0" d="M18.5 14.9c-.5-.3-1-.6-1.5-.8-.2-.1-.5-.4-.8-.4-.5 0-1.3 1.6-1.8 1.6-.2 0-.5-.2-.8-.3-1.6-.9-2.7-2-3.6-3.6-.1-.2-.3-.5-.3-.8 0-.5 1.6-1.2 1.6-1.8 0-.3-.3-.6-.4-.8-.3-.5-.6-1-.8-1.5-.1-.2-.3-.6-.5-.6h-.2c-.2-.1-.9.1-1.1.2-.5.2-.8.7-1 1.1-.3.5-.4 1-.4 1.6 0 .8.3 1.5.6 2.3.2.5.4 1 .7 1.5.9 1.5 2.7 3.3 4.2 4.2.5.3 1 .5 1.5.7.7.3 1.5.6 2.3.6.6 0 1.1-.2 1.6-.4.4-.2.9-.5 1.1-.9.1-.3.3-.9.3-1.2v-.2c-.1-.2-.5-.4-.7-.5z"/></svg>