<?xml version="1.0" encoding="iso-8859-1"?>
<!-- Generator: Adobe Illustrator 17.0.1, SVG Export Plug-In . SVG Version: 6.00 Build 0)  -->
<!DOCTYPE svg PUBLIC "-//W3C//DTD SVG 1.1//EN" "http://www.w3.org/Graphics/SVG/1.1/DTD/svg11.dtd">
<svg version="1.1" xmlns="http://www.w3.org/2000/svg" xmlns:xlink="http://www.w3.org/1999/xlink" x="0px" y="0px" width="70px"
	 height="70px" viewBox="0 0 70 70" style="enable-background:new 0 0 70 70;" xml:space="preserve">
<g id="LinkedIn">
	<rect style="fill:#007BB5;" width="70" height="70"/>
	<g>
		<path style="fill:#FFFFFF;" d="M17.322,28.694h7.932v25.5h-7.932V28.694z M21.289,16.018c2.535,0,4.593,2.059,4.593,4.596
			c0,2.537-2.058,4.596-4.593,4.596c-2.545,0-4.598-2.059-4.598-4.596C16.692,18.077,18.744,16.018,21.289,16.018"/>
		<path style="fill:#FFFFFF;" d="M30.226,28.694h7.597v3.486h0.109c1.057-2.005,3.644-4.119,7.5-4.119
			c8.023,0,9.506,5.28,9.506,12.148v13.985h-7.923V41.793c0-2.957-0.052-6.761-4.12-6.761c-4.124,0-4.753,3.223-4.753,6.55v12.612
			h-7.916V28.694z"/>
	</g>
</g>
</svg>
