<?xml version="1.0" encoding="iso-8859-1"?>
<!-- Generator: Adobe Illustrator 17.0.1, SVG Export Plug-In . SVG Version: 6.00 Build 0)  -->
<!DOCTYPE svg PUBLIC "-//W3C//DTD SVG 1.1//EN" "http://www.w3.org/Graphics/SVG/1.1/DTD/svg11.dtd">
<svg version="1.1" xmlns="http://www.w3.org/2000/svg" xmlns:xlink="http://www.w3.org/1999/xlink" x="0px" y="0px" width="70px"
	 height="70px" viewBox="0 0 70 70" style="enable-background:new 0 0 70 70;" xml:space="preserve">
<g id="Twitter">
	<rect style="fill:#2AA9E0;" width="70" height="70"/>
	<path style="fill:#FFFFFF;" d="M57.353,23.351c-1.489,0.66-3.089,1.107-4.769,1.307c1.714-1.028,3.031-2.655,3.651-4.593
		c-1.604,0.952-3.381,1.642-5.272,2.015c-1.514-1.614-3.672-2.622-6.06-2.622c-4.585,0-8.303,3.717-8.303,8.302
		c0,0.651,0.073,1.284,0.215,1.892c-6.9-0.346-13.018-3.652-17.113-8.675c-0.715,1.226-1.124,2.652-1.124,4.174
		c0,2.881,1.466,5.422,3.694,6.911c-1.361-0.043-2.641-0.417-3.761-1.038c-0.001,0.035-0.001,0.069-0.001,0.104
		c0,4.023,2.862,7.378,6.66,8.141c-0.697,0.19-1.43,0.291-2.187,0.291c-0.535,0-1.055-0.052-1.562-0.149
		c1.057,3.298,4.123,5.699,7.756,5.766c-2.842,2.227-6.421,3.554-10.312,3.554c-0.67,0-1.331-0.039-1.981-0.116
		c3.674,2.356,8.039,3.731,12.727,3.731c15.272,0,23.623-12.652,23.623-23.623c0-0.36-0.008-0.718-0.024-1.074
		C54.832,26.478,56.24,25.016,57.353,23.351z"/>
</g>
</svg>
